<?xml version="1.0" standalone="yes"?>
<svg xmlns="http://www.w3.org/2000/svg" width="733" height="903">
<path style="fill:none; stroke:none;" d="M0 0L0 903L733 903L733 0L0 0z"/>
<path style="fill:#b0cfec; stroke:none;" d="M354 22L354 23L378 23L354 22M338 23L338 24L342 24L338 23z"/>
<path style="fill:#609fd9; stroke:none;" d="M342 23L342 24L345 24L342 23z"/>
<path style="fill:#277ccb; stroke:none;" d="M345.667 23.3333L346.333 23.6667L345.667 23.3333z"/>
<path style="fill:#0165c1; stroke:none;" d="M14 890L718 890L718 495C718 442.243 722.232 387.374 715.715 335C709.484 284.922 692.548 237.422 666.989 194C647.839 161.465 622.22 132.686 594 107.845C565.301 82.5815 531.429 61.8751 496 47.4521C320.944 -23.8115 113.19 66.4231 41.0116 240C6.93584 321.946 14 409.23 14 496L14 890z"/>
<path style="fill:#277ccb; stroke:none;" d="M386 23L386 24L389 24L386 23z"/>
<path style="fill:#609fd9; stroke:none;" d="M389 23L389 24L393 24L389 23z"/>
<path style="fill:#b0cfec; stroke:none;" d="M393 23L393 24L397 24L393 23M329.667 24.3333L330.333 24.6667L329.667 24.3333z"/>
<path style="fill:#609fd9; stroke:none;" d="M331 24L331 25L334 25L331 24z"/>
<path style="fill:#277ccb; stroke:none;" d="M334 24L335 25L334 24M399.667 24.3333L400.333 24.6667L399.667 24.3333z"/>
<path style="fill:#609fd9; stroke:none;" d="M401 24L401 25L404 25L401 24z"/>
<path style="fill:#b0cfec; stroke:none;" d="M404 24L404 25L407 25L404 24M320 25L320 26L323 26L320 25z"/>
<path style="fill:#609fd9; stroke:none;" d="M323.667 25.3333L324.333 25.6667L323.667 25.3333z"/>
<path style="fill:#277ccb; stroke:none;" d="M325.667 25.3333L326.333 25.6667L325.667 25.3333M409.667 25.3333L410.333 25.6667L409.667 25.3333z"/>
<path style="fill:#609fd9; stroke:none;" d="M411.667 25.3333L412.333 25.6667L411.667 25.3333z"/>
<path style="fill:#b0cfec; stroke:none;" d="M413.667 25.3333L414.333 25.6667L413.667 25.3333M314.667 26.3333L315.333 26.6667L314.667 26.3333z"/>
<path style="fill:#609fd9; stroke:none;" d="M316 26L317 27L316 26z"/>
<path style="fill:#277ccb; stroke:none;" d="M317.667 26.3333L318.333 26.6667L317.667 26.3333M416.667 26.3333L417.333 26.6667L416.667 26.3333z"/>
<path style="fill:#609fd9; stroke:none;" d="M418 26L419 27L418 26z"/>
<path style="fill:#b0cfec; stroke:none;" d="M419.667 26.3333L420.333 26.6667L419.667 26.3333M307.667 27.3333L308.333 27.6667L307.667 27.3333z"/>
<path style="fill:#609fd9; stroke:none;" d="M309.667 27.3333L310.333 27.6667L309.667 27.3333z"/>
<path style="fill:#277ccb; stroke:none;" d="M311 27L312 28L311 27M423 27L424 28L423 27z"/>
<path style="fill:#609fd9; stroke:none;" d="M424.667 27.3333L425.333 27.6667L424.667 27.3333z"/>
<path style="fill:#b0cfec; stroke:none;" d="M426 27L427 28L426 27M302 28L303 29L302 28z"/>
<path style="fill:#609fd9; stroke:none;" d="M303.667 28.3333L304.333 28.6667L303.667 28.3333z"/>
<path style="fill:#277ccb; stroke:none;" d="M428 28L429 29L428 28z"/>
<path style="fill:#609fd9; stroke:none;" d="M429.667 28.3333L430.333 28.6667L429.667 28.3333z"/>
<path style="fill:#b0cfec; stroke:none;" d="M431 28L432 29L431 28M297 29L298 30L297 29z"/>
<path style="fill:#609fd9; stroke:none;" d="M298.667 29.3333L299.333 29.6667L298.667 29.3333z"/>
<path style="fill:#277ccb; stroke:none;" d="M300 29L301 30L300 29M434 29L435 30L434 29z"/>
<path style="fill:#609fd9; stroke:none;" d="M435 29L436 30L435 29z"/>
<path style="fill:#b0cfec; stroke:none;" d="M436.667 29.3333L437.333 29.6667L436.667 29.3333M292 30L293 31L292 30z"/>
<path style="fill:#609fd9; stroke:none;" d="M293.667 30.3333L294.333 30.6667L293.667 30.3333z"/>
<path style="fill:#277ccb; stroke:none;" d="M295 30L296 31L295 30M439 30L440 31L439 30z"/>
<path style="fill:#609fd9; stroke:none;" d="M440 30L441 31L440 30z"/>
<path style="fill:#b0cfec; stroke:none;" d="M441 30L442 31L441 30M288 31L289 32L288 31z"/>
<path style="fill:#609fd9; stroke:none;" d="M289 31L290 32L289 31z"/>
<path style="fill:#277ccb; stroke:none;" d="M290 31L291 32L290 31M443 31L444 32L443 31z"/>
<path style="fill:#609fd9; stroke:none;" d="M444 31L445 32L444 31z"/>
<path style="fill:#b0cfec; stroke:none;" d="M445.667 31.3333L446.333 31.6667L445.667 31.3333M283.667 32.3333L284.333 32.6667L283.667 32.3333z"/>
<path style="fill:#609fd9; stroke:none;" d="M285 32L286 33L285 32z"/>
<path style="fill:#277ccb; stroke:none;" d="M286 32L287 33L286 32M448 32L449 33L448 32z"/>
<path style="fill:#609fd9; stroke:none;" d="M449 32L450 33L449 32z"/>
<path style="fill:#b0cfec; stroke:none;" d="M450 32L451 33L450 32M279.667 33.3333L280.333 33.6667L279.667 33.3333z"/>
<path style="fill:#609fd9; stroke:none;" d="M281 33L282 34L281 33z"/>
<path style="fill:#277ccb; stroke:none;" d="M452 33L453 34L452 33z"/>
<path style="fill:#609fd9; stroke:none;" d="M453 33L454 34L453 33z"/>
<path style="fill:#b0cfec; stroke:none;" d="M454 33L455 34L454 33M275 34L276 35L275 34z"/>
<path style="fill:#609fd9; stroke:none;" d="M276 34L277 35L276 34z"/>
<path style="fill:#277ccb; stroke:none;" d="M277 34L278 35L277 34M456 34L457 35L456 34z"/>
<path style="fill:#609fd9; stroke:none;" d="M457 34L458 35L457 34z"/>
<path style="fill:#b0cfec; stroke:none;" d="M458 34L459 35L458 34M272 35L273 36L272 35z"/>
<path style="fill:#609fd9; stroke:none;" d="M273 35L274 36L273 35z"/>
<path style="fill:#277ccb; stroke:none;" d="M274 35L275 36L274 35z"/>
<path style="fill:#609fd9; stroke:none;" d="M460 35L461 36L460 35z"/>
<path style="fill:#b0cfec; stroke:none;" d="M461 35L462 36L461 35M268 36L269 37L268 36z"/>
<path style="fill:#609fd9; stroke:none;" d="M269 36L270 37L269 36z"/>
<path style="fill:#277ccb; stroke:none;" d="M270 36L271 37L270 36M463 36L464 37L463 36z"/>
<path style="fill:#609fd9; stroke:none;" d="M464 36L465 37L464 36z"/>
<path style="fill:#b0cfec; stroke:none;" d="M465 36L466 37L465 36M265 37L266 38L265 37z"/>
<path style="fill:#609fd9; stroke:none;" d="M266 37L267 38L266 37z"/>
<path style="fill:#277ccb; stroke:none;" d="M467 37L468 38L467 37z"/>
<path style="fill:#609fd9; stroke:none;" d="M468 37L469 38L468 37z"/>
<path style="fill:#b0cfec; stroke:none;" d="M261 38L262 39L261 38z"/>
<path style="fill:#609fd9; stroke:none;" d="M262 38L263 39L262 38z"/>
<path style="fill:#277ccb; stroke:none;" d="M263 38L264 39L263 38M470 38L471 39L470 38z"/>
<path style="fill:#609fd9; stroke:none;" d="M471 38L472 39L471 38z"/>
<path style="fill:#b0cfec; stroke:none;" d="M258 39L259 40L258 39z"/>
<path style="fill:#609fd9; stroke:none;" d="M259 39L260 40L259 39z"/>
<path style="fill:#277ccb; stroke:none;" d="M260 39L261 40L260 39M473 39L474 40L473 39z"/>
<path style="fill:#609fd9; stroke:none;" d="M474 39L475 40L474 39z"/>
<path style="fill:#b0cfec; stroke:none;" d="M255 40L256 41L255 40z"/>
<path style="fill:#609fd9; stroke:none;" d="M256 40L257 41L256 40z"/>
<path style="fill:#277ccb; stroke:none;" d="M257 40L258 41L257 40M476 40L477 41L476 40z"/>
<path style="fill:#609fd9; stroke:none;" d="M477 40L478 41L477 40z"/>
<path style="fill:#b0cfec; stroke:none;" d="M478 40L479 41L478 40M252 41L253 42L252 41z"/>
<path style="fill:#609fd9; stroke:none;" d="M253 41L254 42L253 41z"/>
<path style="fill:#277ccb; stroke:none;" d="M254 41L255 42L254 41M479 41L480 42L479 41z"/>
<path style="fill:#609fd9; stroke:none;" d="M480 41L481 42L480 41z"/>
<path style="fill:#b0cfec; stroke:none;" d="M481 41L482 42L481 41M249 42L250 43L249 42z"/>
<path style="fill:#609fd9; stroke:none;" d="M250 42L251 43L250 42z"/>
<path style="fill:#277ccb; stroke:none;" d="M482 42L483 43L482 42z"/>
<path style="fill:#609fd9; stroke:none;" d="M483 42L484 43L483 42z"/>
<path style="fill:#b0cfec; stroke:none;" d="M246 43L247 44L246 43z"/>
<path style="fill:#609fd9; stroke:none;" d="M247 43L248 44L247 43z"/>
<path style="fill:#277ccb; stroke:none;" d="M248 43L249 44L248 43M485 43L486 44L485 43z"/>
<path style="fill:#b0cfec; stroke:none;" d="M486 43L487 44L486 43M244 44L245 45L244 44z"/>
<path style="fill:#277ccb; stroke:none;" d="M245 44L246 45L245 44z"/>
<path style="fill:#609fd9; stroke:none;" d="M488 44L489 45L488 44z"/>
<path style="fill:#b0cfec; stroke:none;" d="M489 44L490 45L489 44M241 45L242 46L241 45z"/>
<path style="fill:#609fd9; stroke:none;" d="M242 45L243 46L242 45z"/>
<path style="fill:#277ccb; stroke:none;" d="M490 45L491 46L490 45z"/>
<path style="fill:#609fd9; stroke:none;" d="M491 45L492 46L491 45z"/>
<path style="fill:#b0cfec; stroke:none;" d="M238 46L239 47L238 46z"/>
<path style="fill:#609fd9; stroke:none;" d="M239 46L240 47L239 46z"/>
<path style="fill:#277ccb; stroke:none;" d="M240 46L241 47L240 46z"/>
<path style="fill:#609fd9; stroke:none;" d="M493 46L494 47L493 46z"/>
<path style="fill:#b0cfec; stroke:none;" d="M494 46L495 47L494 46M236 47L237 48L236 47z"/>
<path style="fill:#277ccb; stroke:none;" d="M237 47L238 48L237 47z"/>
<path style="fill:#609fd9; stroke:none;" d="M496 47L497 48L496 47z"/>
<path style="fill:#b0cfec; stroke:none;" d="M233 48L234 49L233 48z"/>
<path style="fill:#609fd9; stroke:none;" d="M234 48L235 49L234 48M498 48L499 49L498 48z"/>
<path style="fill:#b0cfec; stroke:none;" d="M499 48L500 49L499 48M231 49L232 50L231 49z"/>
<path style="fill:#277ccb; stroke:none;" d="M232 49L233 50L232 49M500 49L501 50L500 49z"/>
<path style="fill:#b0cfec; stroke:none;" d="M501 49L502 50L501 49z"/>
<path style="fill:#609fd9; stroke:none;" d="M229 50L230 51L229 50z"/>
<path style="fill:#277ccb; stroke:none;" d="M230 50L231 51L230 50M502 50L503 51L502 50z"/>
<path style="fill:#b0cfec; stroke:none;" d="M503 50L504 51L503 50M226 51L227 52L226 51z"/>
<path style="fill:#609fd9; stroke:none;" d="M227 51L228 52L227 51M505 51L506 52L505 51z"/>
<path style="fill:#b0cfec; stroke:none;" d="M224 52L225 53L224 52z"/>
<path style="fill:#277ccb; stroke:none;" d="M225 52L226 53L225 52z"/>
<path style="fill:#609fd9; stroke:none;" d="M507 52L508 53L507 52z"/>
<path style="fill:#b0cfec; stroke:none;" d="M508 52L509 53L508 52z"/>
<path style="fill:#609fd9; stroke:none;" d="M222 53L223 54L222 53z"/>
<path style="fill:#277ccb; stroke:none;" d="M223 53L224 54L223 53z"/>
<path style="fill:#609fd9; stroke:none;" d="M509 53L510 54L509 53z"/>
<path style="fill:#b0cfec; stroke:none;" d="M510 53L511 54L510 53z"/>
<path style="fill:#609fd9; stroke:none;" d="M220 54L221 55L220 54M511 54L512 55L511 54z"/>
<path style="fill:#b0cfec; stroke:none;" d="M512 54L513 55L512 54M217 55L218 56L217 55z"/>
<path style="fill:#609fd9; stroke:none;" d="M218 55L219 56L218 55z"/>
<path style="fill:#277ccb; stroke:none;" d="M513 55L514 56L513 55z"/>
<path style="fill:#b0cfec; stroke:none;" d="M514 55L515 56L514 55M215 56L216 57L215 56z"/>
<path style="fill:#277ccb; stroke:none;" d="M216 56L217 57L216 56M515 56L516 57L515 56z"/>
<path style="fill:#b0cfec; stroke:none;" d="M516 56L517 57L516 56M213 57L214 58L213 57z"/>
<path style="fill:#277ccb; stroke:none;" d="M214 57L215 58L214 57M517 57L518 58L517 57z"/>
<path style="fill:#b0cfec; stroke:none;" d="M518 57L519 58L518 57z"/>
<path style="fill:#609fd9; stroke:none;" d="M211 58L212 59L211 58z"/>
<path style="fill:#277ccb; stroke:none;" d="M519 58L520 59L519 58z"/>
<path style="fill:#b0cfec; stroke:none;" d="M520 58L521 59L520 58M209 59L210 60L209 59z"/>
<path style="fill:#277ccb; stroke:none;" d="M521 59L522 60L521 59z"/>
<path style="fill:#b0cfec; stroke:none;" d="M522 59L523 60L522 59M207 60L208 61L207 60z"/>
<path style="fill:#277ccb; stroke:none;" d="M208 60L209 61L208 60M523 60L524 61L523 60z"/>
<path style="fill:#b0cfec; stroke:none;" d="M524 60L525 61L524 60M205 61L206 62L205 61z"/>
<path style="fill:#277ccb; stroke:none;" d="M206 61L207 62L206 61M525 61L526 62L525 61z"/>
<path style="fill:#b0cfec; stroke:none;" d="M526 61L527 62L526 61M203 62L204 63L203 62z"/>
<path style="fill:#277ccb; stroke:none;" d="M204 62L205 63L204 62M527 62L528 63L527 62z"/>
<path style="fill:#b0cfec; stroke:none;" d="M528 62L529 63L528 62M201 63L202 64L201 63z"/>
<path style="fill:#277ccb; stroke:none;" d="M202 63L203 64L202 63M529 63L530 64L529 63z"/>
<path style="fill:#b0cfec; stroke:none;" d="M530 63L531 64L530 63M199 64L200 65L199 64z"/>
<path style="fill:#609fd9; stroke:none;" d="M200 64L201 65L200 64z"/>
<path style="fill:#277ccb; stroke:none;" d="M531 64L532 65L531 64z"/>
<path style="fill:#b0cfec; stroke:none;" d="M532 64L533 65L532 64z"/>
<path style="fill:#609fd9; stroke:none;" d="M198 65L199 66L198 65z"/>
<path style="fill:#277ccb; stroke:none;" d="M533 65L534 66L533 65z"/>
<path style="fill:#609fd9; stroke:none;" d="M196 66L197 67L196 66M535 66L536 67L535 66z"/>
<path style="fill:#b0cfec; stroke:none;" d="M194 67L195 68L194 67z"/>
<path style="fill:#277ccb; stroke:none;" d="M195 67L196 68L195 67M536 67L537 68L536 67z"/>
<path style="fill:#b0cfec; stroke:none;" d="M537 67L538 68L537 67M192 68L193 69L192 68z"/>
<path style="fill:#277ccb; stroke:none;" d="M193 68L194 69L193 68M538 68L539 69L538 68z"/>
<path style="fill:#b0cfec; stroke:none;" d="M539 68L540 69L539 68M190 69L191 70L190 69z"/>
<path style="fill:#277ccb; stroke:none;" d="M191 69L192 70L191 69z"/>
<path style="fill:#609fd9; stroke:none;" d="M540 69L541 70L540 69M189 70L190 71L189 70z"/>
<path style="fill:#b0cfec; stroke:none;" d="M542 70L543 71L542 70z"/>
<path style="fill:#609fd9; stroke:none;" d="M187 71L188 72L187 71z"/>
<path style="fill:#277ccb; stroke:none;" d="M543 71L544 72L543 71z"/>
<path style="fill:#b0cfec; stroke:none;" d="M544 71L545 72L544 71M185 72L186 73L185 72z"/>
<path style="fill:#277ccb; stroke:none;" d="M186 72L187 73L186 72z"/>
<path style="fill:#609fd9; stroke:none;" d="M545 72L546 73L545 72M184 73L185 74L184 73z"/>
<path style="fill:#b0cfec; stroke:none;" d="M547 73L548 74L547 73M182 74L183 75L182 74z"/>
<path style="fill:#277ccb; stroke:none;" d="M548 74L549 75L548 74z"/>
<path style="fill:#b0cfec; stroke:none;" d="M549 74L550 75L549 74M180 75L181 76L180 75z"/>
<path style="fill:#277ccb; stroke:none;" d="M181 75L182 76L181 75z"/>
<path style="fill:#609fd9; stroke:none;" d="M550 75L551 76L550 75M179 76L180 77L179 76z"/>
<path style="fill:#277ccb; stroke:none;" d="M551 76L552 77L551 76z"/>
<path style="fill:#b0cfec; stroke:none;" d="M552 76L553 77L552 76M177 77L178 78L177 77z"/>
<path style="fill:#277ccb; stroke:none;" d="M178 77L179 78L178 77z"/>
<path style="fill:#609fd9; stroke:none;" d="M553 77L554 78L553 77M176 78L177 79L176 78z"/>
<path style="fill:#b0cfec; stroke:none;" d="M555 78L556 79L555 78M174 79L175 80L174 79z"/>
<path style="fill:#609fd9; stroke:none;" d="M556 79L557 80L556 79M173 80L174 81L173 80z"/>
<path style="fill:#b0cfec; stroke:none;" d="M558 80L559 81L558 80M171 81L172 82L171 81z"/>
<path style="fill:#277ccb; stroke:none;" d="M172 81L173 82L172 81z"/>
<path style="fill:#609fd9; stroke:none;" d="M559 81L560 82L559 81M170 82L171 83L170 82z"/>
<path style="fill:#277ccb; stroke:none;" d="M560 82L561 83L560 82z"/>
<path style="fill:#b0cfec; stroke:none;" d="M561 82L562 83L561 82M168 83L169 84L168 83z"/>
<path style="fill:#277ccb; stroke:none;" d="M169 83L170 84L169 83z"/>
<path style="fill:#609fd9; stroke:none;" d="M562 83L563 84L562 83M167 84L168 85L167 84z"/>
<path style="fill:#277ccb; stroke:none;" d="M563 84L564 85L563 84z"/>
<path style="fill:#b0cfec; stroke:none;" d="M564 84L565 85L564 84M165 85L166 86L165 85z"/>
<path style="fill:#277ccb; stroke:none;" d="M166 85L167 86L166 85z"/>
<path style="fill:#609fd9; stroke:none;" d="M565 85L566 86L565 85M164 86L165 87L164 86z"/>
<path style="fill:#277ccb; stroke:none;" d="M566 86L567 87L566 86z"/>
<path style="fill:#b0cfec; stroke:none;" d="M567 86L568 87L567 86z"/>
<path style="fill:#277ccb; stroke:none;" d="M163 87L164 88L163 87z"/>
<path style="fill:#b0cfec; stroke:none;" d="M568 87L569 88L568 87M161 88L162 89L161 88z"/>
<path style="fill:#609fd9; stroke:none;" d="M569 88L570 89L569 88M160 89L161 90L160 89z"/>
<path style="fill:#277ccb; stroke:none;" d="M570 89L571 90L570 89z"/>
<path style="fill:#b0cfec; stroke:none;" d="M571 89L572 90L571 89M158 90L159 91L158 90z"/>
<path style="fill:#277ccb; stroke:none;" d="M159 90L160 91L159 90z"/>
<path style="fill:#609fd9; stroke:none;" d="M572 90L573 91L572 90z"/>
<path style="fill:#b0cfec; stroke:none;" d="M157 91L158 92L157 91z"/>
<path style="fill:#277ccb; stroke:none;" d="M573 91L574 92L573 91M156 92L157 93L156 92z"/>
<path style="fill:#b0cfec; stroke:none;" d="M575 92L576 93L575 92M154 93L155 94L154 93z"/>
<path style="fill:#609fd9; stroke:none;" d="M576 93L577 94L576 93M153 94L154 95L153 94z"/>
<path style="fill:#277ccb; stroke:none;" d="M577 94L578 95L577 94M152 95L153 96L152 95z"/>
<path style="fill:#b0cfec; stroke:none;" d="M579 95L580 96L579 95M150 96L151 97L150 96z"/>
<path style="fill:#277ccb; stroke:none;" d="M151 96L152 97L151 96z"/>
<path style="fill:#609fd9; stroke:none;" d="M580 96L581 97L580 96M149 97L150 98L149 97M581 97L582 98L581 97M148 98L149 99L148 98z"/>
<path style="fill:#277ccb; stroke:none;" d="M582 98L583 99L582 98z"/>
<path style="fill:#b0cfec; stroke:none;" d="M146 99L147 100L146 99z"/>
<path style="fill:#277ccb; stroke:none;" d="M147 99L148 100L147 99z"/>
<path style="fill:#b0cfec; stroke:none;" d="M584 99L585 100L584 99M145 100L146 101L145 100z"/>
<path style="fill:#609fd9; stroke:none;" d="M585 100L586 101L585 100M144 101L145 102L144 101z"/>
<path style="fill:#277ccb; stroke:none;" d="M586 101L587 102L586 101M143 102L144 103L143 102M587 102L588 103L587 102M142 103L143 104L142 103z"/>
<path style="fill:#b0cfec; stroke:none;" d="M589 103L590 104L589 103M140 104L141 105L140 104M590 104L591 105L590 104M139 105L140 106L139 105M591 105L592 106L591 105z"/>
<path style="fill:#609fd9; stroke:none;" d="M138 106L139 107L138 106M592 106L593 107L592 106M137 107L138 108L137 107M593 107L594 108L593 107z"/>
<path style="fill:#277ccb; stroke:none;" d="M136 108L137 109L136 108M594 108L595 109L594 108M135 109L136 110L135 109M595 109L596 110L595 109z"/>
<path style="fill:#b0cfec; stroke:none;" d="M596 109L597 110L596 109M133 110L134 111L133 110z"/>
<path style="fill:#277ccb; stroke:none;" d="M134 110L135 111L134 110z"/>
<path style="fill:#b0cfec; stroke:none;" d="M597 110L598 111L597 110M132 111L133 112L132 111M598 111L599 112L598 111M131 112L132 113L131 112M599 112L600 113L599 112M130 113L131 114L130 113z"/>
<path style="fill:#609fd9; stroke:none;" d="M600 113L601 114L600 113z"/>
<path style="fill:#b0cfec; stroke:none;" d="M129 114L130 115L129 114z"/>
<path style="fill:#609fd9; stroke:none;" d="M601 114L602 115L601 114M128 115L129 116L128 115M602 115L603 116L602 115M127 116L128 117L127 116z"/>
<path style="fill:#277ccb; stroke:none;" d="M603 116L604 117L603 116z"/>
<path style="fill:#609fd9; stroke:none;" d="M126 117L127 118L126 117z"/>
<path style="fill:#277ccb; stroke:none;" d="M604 117L605 118L604 117M125 118L126 119L125 118M605 118L606 119L605 118M124 119L125 120L124 119M606 119L607 120L606 119M123 120L124 121L123 120M607 120L608 121L607 120M122 121L123 122L122 121M608 121L609 122L608 121M121 122L122 123L121 122M609 122L610 123L609 122z"/>
<path style="fill:#b0cfec; stroke:none;" d="M610 122L611 123L610 122z"/>
<path style="fill:#277ccb; stroke:none;" d="M120 123L121 124L120 123z"/>
<path style="fill:#b0cfec; stroke:none;" d="M611 123L612 124L611 123z"/>
<path style="fill:#277ccb; stroke:none;" d="M119 124L120 125L119 124z"/>
<path style="fill:#b0cfec; stroke:none;" d="M612 124L613 125L612 124z"/>
<path style="fill:#277ccb; stroke:none;" d="M118 125L119 126L118 125z"/>
<path style="fill:#b0cfec; stroke:none;" d="M613 125L614 126L613 125z"/>
<path style="fill:#277ccb; stroke:none;" d="M117 126L118 127L117 126z"/>
<path style="fill:#b0cfec; stroke:none;" d="M614 126L615 127L614 126z"/>
<path style="fill:#277ccb; stroke:none;" d="M116 127L117 128L116 127z"/>
<path style="fill:#b0cfec; stroke:none;" d="M615 127L616 128L615 127M114 128L115 129L114 128M616 128L617 129L616 128z"/>
<path style="fill:#277ccb; stroke:none;" d="M114 129L115 130L114 129z"/>
<path style="fill:#b0cfec; stroke:none;" d="M617 129L618 130L617 129z"/>
<path style="fill:#277ccb; stroke:none;" d="M113 130L114 131L113 130z"/>
<path style="fill:#b0cfec; stroke:none;" d="M618 130L619 131L618 130z"/>
<path style="fill:#277ccb; stroke:none;" d="M112 131L113 132L112 131M618 131L619 132L618 131M111 132L112 133L111 132M619 132L620 133L619 132M110 133L111 134L110 133M620 133L621 134L620 133M109 134L110 135L109 134M621 134L622 135L621 134M108 135L109 136L108 135M622 135L623 136L622 135M107 136L108 137L107 136z"/>
<path style="fill:#609fd9; stroke:none;" d="M623 136L624 137L623 136M106 137L107 138L106 137M624 137L625 138L624 137M105 138L106 139L105 138M625 138L626 139L625 138M104 139L105 140L104 139M626 139L627 140L626 139z"/>
<path style="fill:#b0cfec; stroke:none;" d="M103 140L104 141L103 140M627 140L628 141L627 140M102 141L103 142L102 141M628 141L629 142L628 141M101 142L102 143L101 142M629 142L630 143L629 142z"/>
<path style="fill:#277ccb; stroke:none;" d="M101 143L102 144L101 143M629 143L630 144L629 143M100 144L101 145L100 144M630 144L631 145L630 144M99 145L100 146L99 145z"/>
<path style="fill:#609fd9; stroke:none;" d="M631 145L632 146L631 145M98 146L99 147L98 146M632 146L633 147L632 146M97 147L98 148L97 147M633 147L634 148L633 147z"/>
<path style="fill:#b0cfec; stroke:none;" d="M96 148L97 149L96 148M634 148L635 149L634 148M95 149L96 150L95 149M635 149L636 150L635 149z"/>
<path style="fill:#277ccb; stroke:none;" d="M95 150L96 151L95 150M635 150L636 151L635 150M94 151L95 152L94 151M636 151L637 152L636 151z"/>
<path style="fill:#609fd9; stroke:none;" d="M93 152L94 153L93 152M637 152L638 153L637 152z"/>
<path style="fill:#b0cfec; stroke:none;" d="M92 153L93 154L92 153M638 153L639 154L638 153M91 154L92 155L91 154M639 154L640 155L639 154z"/>
<path style="fill:#277ccb; stroke:none;" d="M91 155L92 156L91 155M90 156L91 157L90 156M640 156L641 157L640 156z"/>
<path style="fill:#609fd9; stroke:none;" d="M89 157L90 158L89 157z"/>
<path style="fill:#277ccb; stroke:none;" d="M641 157L642 158L641 157z"/>
<path style="fill:#b0cfec; stroke:none;" d="M88 158L89 159L88 158z"/>
<path style="fill:#609fd9; stroke:none;" d="M642 158L643 159L642 158z"/>
<path style="fill:#b0cfec; stroke:none;" d="M643 159L644 160L643 159z"/>
<path style="fill:#277ccb; stroke:none;" d="M87 160L88 161L87 160z"/>
<path style="fill:#609fd9; stroke:none;" d="M86 161L87 162L86 161z"/>
<path style="fill:#277ccb; stroke:none;" d="M644 161L645 162L644 161z"/>
<path style="fill:#b0cfec; stroke:none;" d="M85 162L86 163L85 162z"/>
<path style="fill:#609fd9; stroke:none;" d="M645 162L646 163L645 162z"/>
<path style="fill:#b0cfec; stroke:none;" d="M84 163L85 164L84 163M646 163L647 164L646 163z"/>
<path style="fill:#277ccb; stroke:none;" d="M84 164L85 165L84 164z"/>
<path style="fill:#609fd9; stroke:none;" d="M83 165L84 166L83 165z"/>
<path style="fill:#277ccb; stroke:none;" d="M647 165L648 166L647 165z"/>
<path style="fill:#b0cfec; stroke:none;" d="M82 166L83 167L82 166z"/>
<path style="fill:#609fd9; stroke:none;" d="M648 166L649 167L648 166z"/>
<path style="fill:#b0cfec; stroke:none;" d="M81 167L82 168L81 167M649 167L650 168L649 167z"/>
<path style="fill:#277ccb; stroke:none;" d="M81 168L82 169L81 168M649 168L650 169L649 168z"/>
<path style="fill:#609fd9; stroke:none;" d="M80 169L81 170L80 169z"/>
<path style="fill:#277ccb; stroke:none;" d="M650 169L651 170L650 169z"/>
<path style="fill:#b0cfec; stroke:none;" d="M79 170L80 171L79 170z"/>
<path style="fill:#609fd9; stroke:none;" d="M651 170L652 171L651 170z"/>
<path style="fill:#b0cfec; stroke:none;" d="M652 171L653 172L652 171z"/>
<path style="fill:#277ccb; stroke:none;" d="M78 172L79 173L78 172M652 172L653 173L652 172z"/>
<path style="fill:#b0cfec; stroke:none;" d="M77 173L78 174L77 173z"/>
<path style="fill:#609fd9; stroke:none;" d="M653 173L654 174L653 173z"/>
<path style="fill:#b0cfec; stroke:none;" d="M76 174L77 175L76 174M654 174L655 175L654 174z"/>
<path style="fill:#277ccb; stroke:none;" d="M76 175L77 176L76 175z"/>
<path style="fill:#609fd9; stroke:none;" d="M75 176L76 177L75 176z"/>
<path style="fill:#277ccb; stroke:none;" d="M655 176L656 177L655 176z"/>
<path style="fill:#b0cfec; stroke:none;" d="M74 177L75 178L74 177M656 177L657 178L656 177z"/>
<path style="fill:#277ccb; stroke:none;" d="M74 178L75 179L74 178z"/>
<path style="fill:#b0cfec; stroke:none;" d="M657 178L658 179L657 178z"/>
<path style="fill:#609fd9; stroke:none;" d="M73 179L74 180L73 179z"/>
<path style="fill:#277ccb; stroke:none;" d="M657 179L658 180L657 179z"/>
<path style="fill:#b0cfec; stroke:none;" d="M72 180L73 181L72 180z"/>
<path style="fill:#609fd9; stroke:none;" d="M658 180L659 181L658 180z"/>
<path style="fill:#277ccb; stroke:none;" d="M72 181L73 182L72 181z"/>
<path style="fill:#b0cfec; stroke:none;" d="M659 181L660 182L659 181z"/>
<path style="fill:#609fd9; stroke:none;" d="M71 182L72 183L71 182z"/>
<path style="fill:#277ccb; stroke:none;" d="M659 182L660 183L659 182z"/>
<path style="fill:#b0cfec; stroke:none;" d="M70 183L71 184L70 183z"/>
<path style="fill:#609fd9; stroke:none;" d="M660 183L661 184L660 183z"/>
<path style="fill:#277ccb; stroke:none;" d="M70 184L71 185L70 184z"/>
<path style="fill:#609fd9; stroke:none;" d="M69 185L70 186L69 185z"/>
<path style="fill:#277ccb; stroke:none;" d="M661 185L662 186L661 185z"/>
<path style="fill:#b0cfec; stroke:none;" d="M662 186L663 187L662 186z"/>
<path style="fill:#277ccb; stroke:none;" d="M68 187L69 188L68 187z"/>
<path style="fill:#b0cfec; stroke:none;" d="M67 188L68 189L67 188z"/>
<path style="fill:#609fd9; stroke:none;" d="M663 188L664 189L663 188z"/>
<path style="fill:#b0cfec; stroke:none;" d="M664 189L665 190L664 189z"/>
<path style="fill:#609fd9; stroke:none;" d="M66 190L67 191L66 190z"/>
<path style="fill:#b0cfec; stroke:none;" d="M65 191L66 192L65 191z"/>
<path style="fill:#609fd9; stroke:none;" d="M665 191L666 192L665 191z"/>
<path style="fill:#277ccb; stroke:none;" d="M65 192L66 193L65 192z"/>
<path style="fill:#b0cfec; stroke:none;" d="M666 192L667 193L666 192z"/>
<path style="fill:#609fd9; stroke:none;" d="M64 193L65 194L64 193z"/>
<path style="fill:#277ccb; stroke:none;" d="M666 193L667 194L666 193z"/>
<path style="fill:#b0cfec; stroke:none;" d="M667 194L668 195L667 194z"/>
<path style="fill:#609fd9; stroke:none;" d="M63 195L64 196L63 195z"/>
<path style="fill:#b0cfec; stroke:none;" d="M62 196L63 197L62 196z"/>
<path style="fill:#609fd9; stroke:none;" d="M668 196L669 197L668 196z"/>
<path style="fill:#277ccb; stroke:none;" d="M62 197L63 198L62 197z"/>
<path style="fill:#b0cfec; stroke:none;" d="M669 197L670 198L669 197M61 198L62 199L61 198z"/>
<path style="fill:#277ccb; stroke:none;" d="M669 198L670 199L669 198z"/>
<path style="fill:#b0cfec; stroke:none;" d="M670 199L671 200L670 199z"/>
<path style="fill:#609fd9; stroke:none;" d="M60 200L61 201L60 200z"/>
<path style="fill:#277ccb; stroke:none;" d="M670 200L671 201L670 200z"/>
<path style="fill:#b0cfec; stroke:none;" d="M59 201L60 202L59 201z"/>
<path style="fill:#609fd9; stroke:none;" d="M671 201L672 202L671 201z"/>
<path style="fill:#277ccb; stroke:none;" d="M59 202L60 203L59 202z"/>
<path style="fill:#b0cfec; stroke:none;" d="M672 202L673 203L672 202M58 203L59 204L58 203z"/>
<path style="fill:#277ccb; stroke:none;" d="M672 203L673 204L672 203M58 204L59 205L58 204z"/>
<path style="fill:#b0cfec; stroke:none;" d="M673 204L674 205L673 204M57 205L58 206L57 205z"/>
<path style="fill:#277ccb; stroke:none;" d="M673 205L674 206L673 205z"/>
<path style="fill:#b0cfec; stroke:none;" d="M674 206L675 207L674 206z"/>
<path style="fill:#609fd9; stroke:none;" d="M56 207L57 208L56 207z"/>
<path style="fill:#277ccb; stroke:none;" d="M674 207L675 208L674 207z"/>
<path style="fill:#b0cfec; stroke:none;" d="M675 208L676 209L675 208z"/>
<path style="fill:#609fd9; stroke:none;" d="M55 209L56 210L55 209z"/>
<path style="fill:#b0cfec; stroke:none;" d="M54 210L55 211L54 210z"/>
<path style="fill:#609fd9; stroke:none;" d="M676 210L677 211L676 210M54 211L55 212L54 211z"/>
<path style="fill:#b0cfec; stroke:none;" d="M53 212L54 213L53 212z"/>
<path style="fill:#609fd9; stroke:none;" d="M677 212L678 213L677 212z"/>
<path style="fill:#277ccb; stroke:none;" d="M53 213L54 214L53 213z"/>
<path style="fill:#b0cfec; stroke:none;" d="M678 213L679 214L678 213M52 214L53 215L52 214z"/>
<path style="fill:#609fd9; stroke:none;" d="M678 214L679 215L678 214z"/>
<path style="fill:#277ccb; stroke:none;" d="M52 215L53 216L52 215z"/>
<path style="fill:#b0cfec; stroke:none;" d="M679 215L680 216L679 215M51 216L52 217L51 216z"/>
<path style="fill:#609fd9; stroke:none;" d="M679 216L680 217L679 216z"/>
<path style="fill:#277ccb; stroke:none;" d="M51 217L52 218L51 217z"/>
<path style="fill:#b0cfec; stroke:none;" d="M680 217L681 218L680 217M50 218L51 219L50 218z"/>
<path style="fill:#609fd9; stroke:none;" d="M680 218L681 219L680 218z"/>
<path style="fill:#277ccb; stroke:none;" d="M50 219L51 220L50 219z"/>
<path style="fill:#b0cfec; stroke:none;" d="M681 219L682 220L681 219M49 220L50 221L49 220z"/>
<path style="fill:#609fd9; stroke:none;" d="M681 220L682 221L681 220z"/>
<path style="fill:#277ccb; stroke:none;" d="M49 221L50 222L49 221z"/>
<path style="fill:#b0cfec; stroke:none;" d="M48 222L49 223L48 222z"/>
<path style="fill:#609fd9; stroke:none;" d="M682 222L683 223L682 222z"/>
<path style="fill:#277ccb; stroke:none;" d="M48 223L49 224L48 223z"/>
<path style="fill:#b0cfec; stroke:none;" d="M47 224L48 225L47 224z"/>
<path style="fill:#609fd9; stroke:none;" d="M683 224L684 225L683 224z"/>
<path style="fill:#277ccb; stroke:none;" d="M47 225L48 226L47 225z"/>
<path style="fill:#b0cfec; stroke:none;" d="M46 226L47 227L46 226z"/>
<path style="fill:#609fd9; stroke:none;" d="M684 226L685 227L684 226M46 227L47 228L46 227M685 228L686 229L685 228M45 229L46 230L45 229z"/>
<path style="fill:#b0cfec; stroke:none;" d="M686 230L687 231L686 230M44 231L45 232L44 231z"/>
<path style="fill:#277ccb; stroke:none;" d="M686 231L687 232L686 231M44 232L45 233L44 232z"/>
<path style="fill:#b0cfec; stroke:none;" d="M687 232L688 233L687 232M43 233L44 234L43 233z"/>
<path style="fill:#277ccb; stroke:none;" d="M687 233L688 234L687 233M43 234L44 235L43 234z"/>
<path style="fill:#b0cfec; stroke:none;" d="M688 234L689 235L688 234M42 235L43 236L42 235z"/>
<path style="fill:#609fd9; stroke:none;" d="M688 235L689 236L688 235M42 236L43 237L42 236M689 237L690 238L689 237M41 238L42 239L41 238z"/>
<path style="fill:#b0cfec; stroke:none;" d="M690 239L691 240L690 239M40 240L41 241L40 240z"/>
<path style="fill:#277ccb; stroke:none;" d="M690 240L691 241L690 240M40 241L41 242L40 241z"/>
<path style="fill:#b0cfec; stroke:none;" d="M691 241L692 242L691 241z"/>
<path style="fill:#609fd9; stroke:none;" d="M691 242L692 243L691 242M39 243L40 244L39 243z"/>
<path style="fill:#b0cfec; stroke:none;" d="M692 244L693 245L692 244M38 245L39 246L38 245z"/>
<path style="fill:#277ccb; stroke:none;" d="M692 245L693 246L692 245M38 246L39 247L38 246z"/>
<path style="fill:#b0cfec; stroke:none;" d="M693 246L694 247L693 246M37 247L38 248L37 247z"/>
<path style="fill:#609fd9; stroke:none;" d="M693 247L694 248L693 247M37 248L38 249L37 248M694 249L695 250L694 249z"/>
<path style="fill:#b0cfec; stroke:none;" d="M36 250L37 251L36 250z"/>
<path style="fill:#277ccb; stroke:none;" d="M694 250L695 251L694 250M36 251L37 252L36 251z"/>
<path style="fill:#b0cfec; stroke:none;" d="M695 251L696 252L695 251z"/>
<path style="fill:#609fd9; stroke:none;" d="M695 252L696 253L695 252M35 253L36 254L35 253z"/>
<path style="fill:#277ccb; stroke:none;" d="M35 254L36 255L35 254z"/>
<path style="fill:#b0cfec; stroke:none;" d="M696 254L697 255L696 254M34 255L35 256L34 255z"/>
<path style="fill:#277ccb; stroke:none;" d="M696 255L697 256L696 255z"/>
<path style="fill:#609fd9; stroke:none;" d="M34 256L35 257L34 256M697 257L698 258L697 257z"/>
<path style="fill:#b0cfec; stroke:none;" d="M33 258L34 259L33 258z"/>
<path style="fill:#277ccb; stroke:none;" d="M697 258L698 259L697 258z"/>
<path style="fill:#609fd9; stroke:none;" d="M33 259L34 260L33 259z"/>
<path style="fill:#b0cfec; stroke:none;" d="M698 259L699 260L698 259z"/>
<path style="fill:#609fd9; stroke:none;" d="M698 260L699 261L698 260z"/>
<path style="fill:#b0cfec; stroke:none;" d="M32 261L33 262L32 261z"/>
<path style="fill:#277ccb; stroke:none;" d="M698 261L699 262L698 261z"/>
<path style="fill:#609fd9; stroke:none;" d="M32 262L33 263L32 262z"/>
<path style="fill:#b0cfec; stroke:none;" d="M699 262L700 263L699 262z"/>
<path style="fill:#609fd9; stroke:none;" d="M699 263L700 264L699 263z"/>
<path style="fill:#b0cfec; stroke:none;" d="M31 264L32 265L31 264z"/>
<path style="fill:#277ccb; stroke:none;" d="M31 265L32 266L31 265z"/>
<path style="fill:#b0cfec; stroke:none;" d="M700 265L701 266L700 265z"/>
<path style="fill:#609fd9; stroke:none;" d="M700 266L701 267L700 266z"/>
<path style="fill:#b0cfec; stroke:none;" d="M30 267L31 268L30 267z"/>
<path style="fill:#609fd9; stroke:none;" d="M30 268L31 269L30 268z"/>
<path style="fill:#b0cfec; stroke:none;" d="M701 268L702 269L701 268z"/>
<path style="fill:#609fd9; stroke:none;" d="M701 269L702 270L701 269z"/>
<path style="fill:#b0cfec; stroke:none;" d="M29 270L30 271L29 270z"/>
<path style="fill:#277ccb; stroke:none;" d="M701 270L702 271L701 270z"/>
<path style="fill:#609fd9; stroke:none;" d="M29 271L30 272L29 271z"/>
<path style="fill:#b0cfec; stroke:none;" d="M702 271L703 272L702 271z"/>
<path style="fill:#609fd9; stroke:none;" d="M702 272L703 273L702 272z"/>
<path style="fill:#b0cfec; stroke:none;" d="M28 273L29 274L28 273z"/>
<path style="fill:#277ccb; stroke:none;" d="M702 273L703 274L702 273z"/>
<path style="fill:#609fd9; stroke:none;" d="M28 274L29 275L28 274z"/>
<path style="fill:#b0cfec; stroke:none;" d="M703 274L704 275L703 274z"/>
<path style="fill:#277ccb; stroke:none;" d="M28 275L29 276L28 275z"/>
<path style="fill:#609fd9; stroke:none;" d="M703 275L704 276L703 275z"/>
<path style="fill:#b0cfec; stroke:none;" d="M27 276L28 277L27 276z"/>
<path style="fill:#277ccb; stroke:none;" d="M703 276L704 277L703 276z"/>
<path style="fill:#609fd9; stroke:none;" d="M27 277L28 278L27 277z"/>
<path style="fill:#277ccb; stroke:none;" d="M27 278L28 279L27 278z"/>
<path style="fill:#b0cfec; stroke:none;" d="M704 278L705 279L704 278z"/>
<path style="fill:#609fd9; stroke:none;" d="M704 279L705 280L704 279z"/>
<path style="fill:#b0cfec; stroke:none;" d="M26 280L27 281L26 280z"/>
<path style="fill:#609fd9; stroke:none;" d="M26 281L27 282L26 281z"/>
<path style="fill:#b0cfec; stroke:none;" d="M705 281L706 282L705 281z"/>
<path style="fill:#277ccb; stroke:none;" d="M26 282L27 283L26 282z"/>
<path style="fill:#609fd9; stroke:none;" d="M705 282L706 283L705 282z"/>
<path style="fill:#277ccb; stroke:none;" d="M705 283L706 284L705 283z"/>
<path style="fill:#b0cfec; stroke:none;" d="M25 284L26 285L25 284z"/>
<path style="fill:#609fd9; stroke:none;" d="M25 285L26 286L25 285z"/>
<path style="fill:#b0cfec; stroke:none;" d="M706 285L707 286L706 285z"/>
<path style="fill:#609fd9; stroke:none;" d="M706 286L707 287L706 286z"/>
<path style="fill:#b0cfec; stroke:none;" d="M24 287L25 288L24 287z"/>
<path style="fill:#277ccb; stroke:none;" d="M706 287L707 288L706 287z"/>
<path style="fill:#609fd9; stroke:none;" d="M24 288L25 289L24 288z"/>
<path style="fill:#b0cfec; stroke:none;" d="M707 288L708 289L707 288z"/>
<path style="fill:#277ccb; stroke:none;" d="M24 289L25 290L24 289z"/>
<path style="fill:#609fd9; stroke:none;" d="M707 289L708 290L707 289z"/>
<path style="fill:#277ccb; stroke:none;" d="M707 290L708 291L707 290z"/>
<path style="fill:#b0cfec; stroke:none;" d="M23 291L24 292L23 291z"/>
<path style="fill:#609fd9; stroke:none;" d="M23 292L24 293L23 292z"/>
<path style="fill:#b0cfec; stroke:none;" d="M708.333 292.667L708.667 293.333L708.333 292.667z"/>
<path style="fill:#277ccb; stroke:none;" d="M23 293L24 294L23 293z"/>
<path style="fill:#609fd9; stroke:none;" d="M708 294L709 295L708 294z"/>
<path style="fill:#b0cfec; stroke:none;" d="M22.3333 295.667L22.6667 296.333L22.3333 295.667z"/>
<path style="fill:#277ccb; stroke:none;" d="M708 295L709 296L708 295z"/>
<path style="fill:#609fd9; stroke:none;" d="M22 297L23 298L22 297z"/>
<path style="fill:#b0cfec; stroke:none;" d="M709 297L710 298L709 297z"/>
<path style="fill:#609fd9; stroke:none;" d="M709 298L710 299L709 298z"/>
<path style="fill:#277ccb; stroke:none;" d="M709 299L710 300L709 299z"/>
<path style="fill:#b0cfec; stroke:none;" d="M21 300L22 301L21 300z"/>
<path style="fill:#609fd9; stroke:none;" d="M21 301L22 302L21 301z"/>
<path style="fill:#b0cfec; stroke:none;" d="M710 301L711 302L710 301z"/>
<path style="fill:#277ccb; stroke:none;" d="M21 302L22 303L21 302z"/>
<path style="fill:#609fd9; stroke:none;" d="M710 302L711 303L710 302z"/>
<path style="fill:#277ccb; stroke:none;" d="M710 303L711 304L710 303z"/>
<path style="fill:#b0cfec; stroke:none;" d="M20.3333 304.667L20.6667 305.333L20.3333 304.667M711.333 305.667L711.667 306.333L711.333 305.667z"/>
<path style="fill:#609fd9; stroke:none;" d="M20 306L21 307L20 306z"/>
<path style="fill:#277ccb; stroke:none;" d="M20 307L21 308L20 307z"/>
<path style="fill:#609fd9; stroke:none;" d="M711 307L712 308L711 307z"/>
<path style="fill:#277ccb; stroke:none;" d="M711 308L712 309L711 308z"/>
<path style="fill:#b0cfec; stroke:none;" d="M19.3333 309.667L19.6667 310.333L19.3333 309.667z"/>
<path style="fill:#609fd9; stroke:none;" d="M19 311L20 312L19 311z"/>
<path style="fill:#b0cfec; stroke:none;" d="M712 311L713 312L712 311z"/>
<path style="fill:#277ccb; stroke:none;" d="M19 312L20 313L19 312z"/>
<path style="fill:#609fd9; stroke:none;" d="M712.333 312.667L712.667 313.333L712.333 312.667z"/>
<path style="fill:#b0cfec; stroke:none;" d="M18.3333 314.667L18.6667 315.333L18.3333 314.667z"/>
<path style="fill:#277ccb; stroke:none;" d="M712 314L713 315L712 314z"/>
<path style="fill:#609fd9; stroke:none;" d="M18 316L19 317L18 316z"/>
<path style="fill:#b0cfec; stroke:none;" d="M713 316L714 317L713 316z"/>
<path style="fill:#277ccb; stroke:none;" d="M18.3333 317.667L18.6667 318.333L18.3333 317.667z"/>
<path style="fill:#609fd9; stroke:none;" d="M713.333 317.667L713.667 318.333L713.333 317.667z"/>
<path style="fill:#277ccb; stroke:none;" d="M713 319L714 320L713 319z"/>
<path style="fill:#b0cfec; stroke:none;" d="M17.3333 320.667L17.6667 321.333L17.3333 320.667z"/>
<path style="fill:#609fd9; stroke:none;" d="M17.3333 322.667L17.6667 323.333L17.3333 322.667z"/>
<path style="fill:#b0cfec; stroke:none;" d="M714.333 322.667L714.667 323.333L714.333 322.667z"/>
<path style="fill:#277ccb; stroke:none;" d="M17 324L18 325L17 324z"/>
<path style="fill:#609fd9; stroke:none;" d="M714.333 324.667L714.667 325.333L714.333 324.667z"/>
<path style="fill:#277ccb; stroke:none;" d="M714 326L715 327L714 326z"/>
<path style="fill:#b0cfec; stroke:none;" d="M16.3333 327.667L16.6667 328.333L16.3333 327.667M715 328L715 331L716 331L715 328z"/>
<path style="fill:#609fd9; stroke:none;" d="M16.3333 329.667L16.6667 330.333L16.3333 329.667z"/>
<path style="fill:#277ccb; stroke:none;" d="M16 331L17 332L16 331z"/>
<path style="fill:#609fd9; stroke:none;" d="M715.333 331.667L715.667 332.333L715.333 331.667z"/>
<path style="fill:#277ccb; stroke:none;" d="M715 333L716 334L715 333z"/>
<path style="fill:#b0cfec; stroke:none;" d="M15 334L15 337L16 337L15 334M716 336L716 339L717 339L716 336z"/>
<path style="fill:#609fd9; stroke:none;" d="M15.3333 337.667L15.6667 338.333L15.3333 337.667z"/>
<path style="fill:#277ccb; stroke:none;" d="M15.3333 339.667L15.6667 340.333L15.3333 339.667z"/>
<path style="fill:#609fd9; stroke:none;" d="M716.333 339.667L716.667 340.333L716.333 339.667z"/>
<path style="fill:#277ccb; stroke:none;" d="M716.333 341.667L716.667 342.333L716.333 341.667z"/>
<path style="fill:#b0cfec; stroke:none;" d="M14 343L14 346L15 346L14 343M717 345L717 350L718 350L717 345z"/>
<path style="fill:#609fd9; stroke:none;" d="M14 346L14 350L15 350L14 346z"/>
<path style="fill:#277ccb; stroke:none;" d="M14 350L14 353L15 353L14 350z"/>
<path style="fill:#609fd9; stroke:none;" d="M717 350L717 353L718 353L717 350z"/>
<path style="fill:#277ccb; stroke:none;" d="M717 353L717 356L718 356L717 353z"/>
<path style="fill:#b0cfec; stroke:none;" d="M13 358L13 890L14 890L14 513L14 404C14 391.009 18.0067 369.932 13 358M718 359L718 365L719 365L718 359z"/>
<path style="fill:#609fd9; stroke:none;" d="M718 365L718 371L719 371L718 365z"/>
<path style="fill:#277ccb; stroke:none;" d="M718 371L718 890L719 890L719 522L719 416C719 403.271 722.907 382.694 718 371z"/>
<path style="fill:#b0cfec; stroke:none;" d="M14 890L14 891L719 891L699 890L658 890L514 890L14 890z"/>
</svg>
