<?xml version="1.0" standalone="yes"?>
<svg xmlns="http://www.w3.org/2000/svg" width="749" height="936">
<path style="fill:none; stroke:none;" d="M0 0L0 936L749 936L749 0L0 0z"/>
<path style="fill:#fddac7; stroke:none;" d="M360 38L360 39L389 39L360 38M346.667 39.3333L347.333 39.6667L346.667 39.3333z"/>
<path style="fill:#fdc6ab; stroke:none;" d="M348.667 39.3333L349.333 39.6667L348.667 39.3333z"/>
<path style="fill:#fba376; stroke:none;" d="M350 39L350 40L354 40L350 39z"/>
<path style="fill:#f76b23; stroke:none;" d="M22 906L727 906L727 503C727 405.692 731.703 308.638 681.573 221C640.809 149.737 577.619 92.5319 501 62.2037C371.142 10.8018 208.714 46.3672 115.715 152C89.7239 181.521 66.9772 213.667 51.4275 250C15.2628 334.5 22 423.2 22 513L22 906z"/>
<path style="fill:#fba376; stroke:none;" d="M396 39L396 40L400 40L396 39z"/>
<path style="fill:#fdc6ab; stroke:none;" d="M400 39L400 40L403 40L400 39z"/>
<path style="fill:#fddac7; stroke:none;" d="M403.667 39.3333L404.333 39.6667L403.667 39.3333M336.667 40.3333L337.333 40.6667L336.667 40.3333z"/>
<path style="fill:#fdc6ab; stroke:none;" d="M338.667 40.3333L339.333 40.6667L338.667 40.3333z"/>
<path style="fill:#fba376; stroke:none;" d="M340.667 40.3333L341.333 40.6667L340.667 40.3333M409 40L409 41L412 41L409 40z"/>
<path style="fill:#fdc6ab; stroke:none;" d="M412 40L413 41L412 40z"/>
<path style="fill:#fddac7; stroke:none;" d="M413.667 40.3333L414.333 40.6667L413.667 40.3333M328 41L329 42L328 41z"/>
<path style="fill:#fdc6ab; stroke:none;" d="M329.667 41.3333L330.333 41.6667L329.667 41.3333z"/>
<path style="fill:#fba376; stroke:none;" d="M331 41L331 42L334 42L331 41M418 41L418 42L421 42L418 41z"/>
<path style="fill:#fdc6ab; stroke:none;" d="M421 41L422 42L421 41z"/>
<path style="fill:#fddac7; stroke:none;" d="M422 41L423 42L422 41M321.667 42.3333L322.333 42.6667L321.667 42.3333z"/>
<path style="fill:#fdc6ab; stroke:none;" d="M323 42L324 43L323 42z"/>
<path style="fill:#fba376; stroke:none;" d="M324.667 42.3333L325.333 42.6667L324.667 42.3333M425.667 42.3333L426.333 42.6667L425.667 42.3333z"/>
<path style="fill:#fdc6ab; stroke:none;" d="M427 42L428 43L427 42z"/>
<path style="fill:#fddac7; stroke:none;" d="M428 42L429 43L428 42M315 43L316 44L315 43z"/>
<path style="fill:#fdc6ab; stroke:none;" d="M316 43L317 44L316 43z"/>
<path style="fill:#fba376; stroke:none;" d="M317.667 43.3333L318.333 43.6667L317.667 43.3333M431.667 43.3333L432.333 43.6667L431.667 43.3333z"/>
<path style="fill:#fdc6ab; stroke:none;" d="M433 43L434 44L433 43z"/>
<path style="fill:#fddac7; stroke:none;" d="M434 43L435 44L434 43z"/>
<path style="fill:#fdc6ab; stroke:none;" d="M310 44L311 45L310 44z"/>
<path style="fill:#fba376; stroke:none;" d="M311.667 44.3333L312.333 44.6667L311.667 44.3333M437.667 44.3333L438.333 44.6667L437.667 44.3333z"/>
<path style="fill:#fdc6ab; stroke:none;" d="M439 44L440 45L439 44z"/>
<path style="fill:#fddac7; stroke:none;" d="M440 44L441 45L440 44M305 45L306 46L305 45z"/>
<path style="fill:#fba376; stroke:none;" d="M306.667 45.3333L307.333 45.6667L306.667 45.3333M442.667 45.3333L443.333 45.6667L442.667 45.3333z"/>
<path style="fill:#fdc6ab; stroke:none;" d="M444 45L445 46L444 45z"/>
<path style="fill:#fddac7; stroke:none;" d="M445 45L446 46L445 45M300 46L301 47L300 46z"/>
<path style="fill:#fdc6ab; stroke:none;" d="M301 46L302 47L301 46z"/>
<path style="fill:#fba376; stroke:none;" d="M302 46L303 47L302 46M447.667 46.3333L448.333 46.6667L447.667 46.3333z"/>
<path style="fill:#fdc6ab; stroke:none;" d="M449 46L450 47L449 46z"/>
<path style="fill:#fddac7; stroke:none;" d="M295 47L296 48L295 47z"/>
<path style="fill:#fdc6ab; stroke:none;" d="M296 47L297 48L296 47z"/>
<path style="fill:#fba376; stroke:none;" d="M297 47L298 48L297 47M452 47L453 48L452 47z"/>
<path style="fill:#fdc6ab; stroke:none;" d="M453 47L454 48L453 47z"/>
<path style="fill:#fddac7; stroke:none;" d="M454 47L455 48L454 47M291 48L292 49L291 48z"/>
<path style="fill:#fdc6ab; stroke:none;" d="M292 48L293 49L292 48z"/>
<path style="fill:#fba376; stroke:none;" d="M293 48L294 49L293 48M456 48L457 49L456 48z"/>
<path style="fill:#fdc6ab; stroke:none;" d="M457 48L458 49L457 48z"/>
<path style="fill:#fddac7; stroke:none;" d="M458 48L459 49L458 48M287 49L288 50L287 49z"/>
<path style="fill:#fdc6ab; stroke:none;" d="M288 49L289 50L288 49z"/>
<path style="fill:#fba376; stroke:none;" d="M289 49L290 50L289 49M461 49L462 50L461 49z"/>
<path style="fill:#fdc6ab; stroke:none;" d="M462 49L463 50L462 49z"/>
<path style="fill:#fddac7; stroke:none;" d="M283 50L284 51L283 50z"/>
<path style="fill:#fdc6ab; stroke:none;" d="M284 50L285 51L284 50z"/>
<path style="fill:#fba376; stroke:none;" d="M285 50L286 51L285 50M464.667 50.3333L465.333 50.6667L464.667 50.3333z"/>
<path style="fill:#fddac7; stroke:none;" d="M466 50L467 51L466 50z"/>
<path style="fill:#fdc6ab; stroke:none;" d="M280 51L281 52L280 51z"/>
<path style="fill:#fba376; stroke:none;" d="M281 51L282 52L281 51M468 51L469 52L468 51z"/>
<path style="fill:#fdc6ab; stroke:none;" d="M469 51L470 52L469 51z"/>
<path style="fill:#fddac7; stroke:none;" d="M470 51L471 52L470 51M276 52L277 53L276 52z"/>
<path style="fill:#fba376; stroke:none;" d="M277.667 52.3333L278.333 52.6667L277.667 52.3333M472 52L473 53L472 52z"/>
<path style="fill:#fdc6ab; stroke:none;" d="M473 52L474 53L473 52M273 53L274 54L273 53z"/>
<path style="fill:#fba376; stroke:none;" d="M274 53L275 54L274 53M475 53L476 54L475 53z"/>
<path style="fill:#fdc6ab; stroke:none;" d="M476 53L477 54L476 53z"/>
<path style="fill:#fddac7; stroke:none;" d="M269 54L270 55L269 54z"/>
<path style="fill:#fba376; stroke:none;" d="M270 54L271 55L270 54z"/>
<path style="fill:#fdc6ab; stroke:none;" d="M479 54L480 55L479 54z"/>
<path style="fill:#fddac7; stroke:none;" d="M480 54L481 55L480 54M266 55L267 56L266 55z"/>
<path style="fill:#fba376; stroke:none;" d="M267 55L268 56L267 55z"/>
<path style="fill:#fdc6ab; stroke:none;" d="M482 55L483 56L482 55z"/>
<path style="fill:#fddac7; stroke:none;" d="M483 55L484 56L483 55M263 56L264 57L263 56z"/>
<path style="fill:#fba376; stroke:none;" d="M264 56L265 57L264 56z"/>
<path style="fill:#fdc6ab; stroke:none;" d="M485 56L486 57L485 56z"/>
<path style="fill:#fddac7; stroke:none;" d="M486 56L487 57L486 56M260 57L261 58L260 57z"/>
<path style="fill:#fba376; stroke:none;" d="M261 57L262 58L261 57M488 57L489 58L488 57z"/>
<path style="fill:#fddac7; stroke:none;" d="M489 57L490 58L489 57M257 58L258 59L257 58z"/>
<path style="fill:#fba376; stroke:none;" d="M258 58L259 59L258 58M490 58L491 59L490 58z"/>
<path style="fill:#fdc6ab; stroke:none;" d="M491 58L492 59L491 58z"/>
<path style="fill:#fddac7; stroke:none;" d="M492 58L493 59L492 58M254 59L255 60L254 59z"/>
<path style="fill:#fba376; stroke:none;" d="M255 59L256 60L255 59M493 59L494 60L493 59z"/>
<path style="fill:#fdc6ab; stroke:none;" d="M494 59L495 60L494 59M252 60L253 61L252 60z"/>
<path style="fill:#fba376; stroke:none;" d="M253 60L254 61L253 60M496 60L497 61L496 60z"/>
<path style="fill:#fddac7; stroke:none;" d="M497 60L498 61L497 60M249 61L250 62L249 61z"/>
<path style="fill:#fba376; stroke:none;" d="M250 61L251 62L250 61z"/>
<path style="fill:#fdc6ab; stroke:none;" d="M499 61L500 62L499 61z"/>
<path style="fill:#fddac7; stroke:none;" d="M246 62L247 63L246 62z"/>
<path style="fill:#fba376; stroke:none;" d="M247 62L248 63L247 62M501 62L502 63L501 62z"/>
<path style="fill:#fdc6ab; stroke:none;" d="M502 62L503 63L502 62M244 63L245 64L244 63z"/>
<path style="fill:#fba376; stroke:none;" d="M245 63L246 64L245 63M504 63L505 64L504 63z"/>
<path style="fill:#fddac7; stroke:none;" d="M241 64L242 65L241 64z"/>
<path style="fill:#fba376; stroke:none;" d="M242 64L243 65L242 64M506 64L507 65L506 64z"/>
<path style="fill:#fddac7; stroke:none;" d="M507 64L508 65L507 64z"/>
<path style="fill:#fdc6ab; stroke:none;" d="M239 65L240 66L239 65z"/>
<path style="fill:#fba376; stroke:none;" d="M240 65L241 66L240 65M508 65L509 66L508 65z"/>
<path style="fill:#fddac7; stroke:none;" d="M509 65L510 66L509 65z"/>
<path style="fill:#fdc6ab; stroke:none;" d="M237 66L238 67L237 66M511 66L512 67L511 66z"/>
<path style="fill:#fddac7; stroke:none;" d="M234 67L235 68L234 67z"/>
<path style="fill:#fba376; stroke:none;" d="M235 67L236 68L235 67M513 67L514 68L513 67z"/>
<path style="fill:#fdc6ab; stroke:none;" d="M232 68L233 69L232 68z"/>
<path style="fill:#fba376; stroke:none;" d="M233 68L234 69L233 68M515 68L516 69L515 68z"/>
<path style="fill:#fddac7; stroke:none;" d="M516 68L517 69L516 68z"/>
<path style="fill:#fdc6ab; stroke:none;" d="M230 69L231 70L230 69z"/>
<path style="fill:#fba376; stroke:none;" d="M517 69L518 70L517 69z"/>
<path style="fill:#fddac7; stroke:none;" d="M518 69L519 70L518 69M227 70L228 71L227 70z"/>
<path style="fill:#fba376; stroke:none;" d="M228 70L229 71L228 70M519 70L520 71L519 70z"/>
<path style="fill:#fddac7; stroke:none;" d="M520 70L521 71L520 70M225 71L226 72L225 71z"/>
<path style="fill:#fba376; stroke:none;" d="M226 71L227 72L226 71M521 71L522 72L521 71z"/>
<path style="fill:#fddac7; stroke:none;" d="M522 71L523 72L522 71z"/>
<path style="fill:#fdc6ab; stroke:none;" d="M223 72L224 73L223 72z"/>
<path style="fill:#fba376; stroke:none;" d="M224 72L225 73L224 72z"/>
<path style="fill:#fdc6ab; stroke:none;" d="M524 72L525 73L524 72M221 73L222 74L221 73M526 73L527 74L526 73M219 74L220 75L219 74M528 74L529 75L528 74M217 75L218 76L217 75M530 75L531 76L530 75M215 76L216 77L215 76M532 76L533 77L532 76M213 77L214 78L213 77M534 77L535 78L534 77z"/>
<path style="fill:#fddac7; stroke:none;" d="M211 78L212 79L211 78z"/>
<path style="fill:#fdc6ab; stroke:none;" d="M536 78L537 79L536 78z"/>
<path style="fill:#fddac7; stroke:none;" d="M209 79L210 80L209 79z"/>
<path style="fill:#fba376; stroke:none;" d="M210 79L211 80L210 79z"/>
<path style="fill:#fdc6ab; stroke:none;" d="M538 79L539 80L538 79z"/>
<path style="fill:#fddac7; stroke:none;" d="M207 80L208 81L207 80z"/>
<path style="fill:#fba376; stroke:none;" d="M208 80L209 81L208 80z"/>
<path style="fill:#fddac7; stroke:none;" d="M540 80L541 81L540 80z"/>
<path style="fill:#fba376; stroke:none;" d="M206 81L207 82L206 81M541 81L542 82L541 81z"/>
<path style="fill:#fddac7; stroke:none;" d="M542 81L543 82L542 81z"/>
<path style="fill:#fba376; stroke:none;" d="M204 82L205 83L204 82M543 82L544 83L543 82z"/>
<path style="fill:#fdc6ab; stroke:none;" d="M202 83L203 84L202 83M545 83L546 84L545 83z"/>
<path style="fill:#fddac7; stroke:none;" d="M200 84L201 85L200 84z"/>
<path style="fill:#fba376; stroke:none;" d="M546 84L547 85L546 84z"/>
<path style="fill:#fddac7; stroke:none;" d="M547 84L548 85L547 84M198 85L199 86L198 85z"/>
<path style="fill:#fba376; stroke:none;" d="M199 85L200 86L199 85M548 85L549 86L548 85M197 86L198 87L197 86z"/>
<path style="fill:#fdc6ab; stroke:none;" d="M550 86L551 87L550 86M195 87L196 88L195 87z"/>
<path style="fill:#fddac7; stroke:none;" d="M552 87L553 88L552 87M193 88L194 89L193 88z"/>
<path style="fill:#fba376; stroke:none;" d="M553 88L554 89L553 88M192 89L193 90L192 89z"/>
<path style="fill:#fdc6ab; stroke:none;" d="M555 89L556 90L555 89M190 90L191 91L190 90z"/>
<path style="fill:#fba376; stroke:none;" d="M556 90L557 91L556 90z"/>
<path style="fill:#fddac7; stroke:none;" d="M557 90L558 91L557 90M188 91L189 92L188 91z"/>
<path style="fill:#fba376; stroke:none;" d="M189 91L190 92L189 91M558 91L559 92L558 91M187 92L188 93L187 92z"/>
<path style="fill:#fddac7; stroke:none;" d="M560 92L561 93L560 92M185 93L186 94L185 93z"/>
<path style="fill:#fba376; stroke:none;" d="M561 93L562 94L561 93M184 94L185 95L184 94z"/>
<path style="fill:#fdc6ab; stroke:none;" d="M563 94L564 95L563 94z"/>
<path style="fill:#fddac7; stroke:none;" d="M182 95L183 96L182 95z"/>
<path style="fill:#fba376; stroke:none;" d="M564 95L565 96L564 95M181 96L182 97L181 96z"/>
<path style="fill:#fdc6ab; stroke:none;" d="M566 96L567 97L566 96z"/>
<path style="fill:#fddac7; stroke:none;" d="M179 97L180 98L179 97z"/>
<path style="fill:#fba376; stroke:none;" d="M567 97L568 98L567 97M178 98L179 99L178 98z"/>
<path style="fill:#fddac7; stroke:none;" d="M569 98L570 99L569 98M176 99L177 100L176 99z"/>
<path style="fill:#fba376; stroke:none;" d="M570 99L571 100L570 99M175 100L176 101L175 100z"/>
<path style="fill:#fddac7; stroke:none;" d="M572 100L573 101L572 100M173 101L174 102L173 101z"/>
<path style="fill:#fba376; stroke:none;" d="M573 101L574 102L573 101z"/>
<path style="fill:#fdc6ab; stroke:none;" d="M172 102L173 103L172 102z"/>
<path style="fill:#fddac7; stroke:none;" d="M575 102L576 103L575 102z"/>
<path style="fill:#fba376; stroke:none;" d="M171 103L172 104L171 103z"/>
<path style="fill:#fdc6ab; stroke:none;" d="M576 103L577 104L576 103M169 104L170 105L169 104z"/>
<path style="fill:#fba376; stroke:none;" d="M577 104L578 105L577 104M168 105L169 106L168 105z"/>
<path style="fill:#fddac7; stroke:none;" d="M579 105L580 106L579 105M166 106L167 107L166 106z"/>
<path style="fill:#fba376; stroke:none;" d="M580 106L581 107L580 106z"/>
<path style="fill:#fdc6ab; stroke:none;" d="M165 107L166 108L165 107z"/>
<path style="fill:#fba376; stroke:none;" d="M581 107L582 108L581 107z"/>
<path style="fill:#fddac7; stroke:none;" d="M582 107L583 108L582 107z"/>
<path style="fill:#fba376; stroke:none;" d="M164 108L165 109L164 108z"/>
<path style="fill:#fdc6ab; stroke:none;" d="M583 108L584 109L583 108z"/>
<path style="fill:#fddac7; stroke:none;" d="M162 109L163 110L162 109z"/>
<path style="fill:#fba376; stroke:none;" d="M584 109L585 110L584 109M161 110L162 111L161 110z"/>
<path style="fill:#fddac7; stroke:none;" d="M586 110L587 111L586 110z"/>
<path style="fill:#fba376; stroke:none;" d="M160 111L161 112L160 111z"/>
<path style="fill:#fddac7; stroke:none;" d="M587 111L588 112L587 111M158 112L159 113L158 112z"/>
<path style="fill:#fdc6ab; stroke:none;" d="M588 112L589 113L588 112M157 113L158 114L157 113z"/>
<path style="fill:#fba376; stroke:none;" d="M589 113L590 114L589 113M156 114L157 115L156 114z"/>
<path style="fill:#fddac7; stroke:none;" d="M591 114L592 115L591 114M154 115L155 116L154 115z"/>
<path style="fill:#fdc6ab; stroke:none;" d="M592 115L593 116L592 115M153 116L154 117L153 116z"/>
<path style="fill:#fba376; stroke:none;" d="M593 116L594 117L593 116M152 117L153 118L152 117M594 117L595 118L594 117M151 118L152 119L151 118z"/>
<path style="fill:#fddac7; stroke:none;" d="M596 118L597 119L596 118M149 119L150 120L149 119M597 119L598 120L597 119M148 120L149 121L148 120z"/>
<path style="fill:#fdc6ab; stroke:none;" d="M598 120L599 121L598 120M147 121L148 122L147 121M599 121L600 122L599 121M146 122L147 123L146 122z"/>
<path style="fill:#fba376; stroke:none;" d="M600 122L601 123L600 122M145 123L146 124L145 123M601 123L602 124L601 123M144 124L145 125L144 124z"/>
<path style="fill:#fddac7; stroke:none;" d="M604 125L605 126L604 125M141 126L142 127L141 126M605 126L606 127L605 126M140 127L141 128L140 127z"/>
<path style="fill:#fdc6ab; stroke:none;" d="M606 127L607 128L606 127z"/>
<path style="fill:#fddac7; stroke:none;" d="M139 128L140 129L139 128z"/>
<path style="fill:#fdc6ab; stroke:none;" d="M607 128L608 129L607 128M138 129L139 130L138 129M608 129L609 130L608 129M137 130L138 131L137 130z"/>
<path style="fill:#fba376; stroke:none;" d="M609 130L610 131L609 130M136 131L137 132L136 131M610 131L611 132L610 131M135 132L136 133L135 132M611 132L612 133L611 132M134 133L135 134L134 133M612 133L613 134L612 133M133 134L134 135L133 134M132 135L133 136L132 135z"/>
<path style="fill:#fddac7; stroke:none;" d="M615 135L616 136L615 135M616 136L617 137L616 136M617 137L618 138L617 137M618 138L619 139L618 138M619 139L620 140L619 139M620 140L621 141L620 140M125 141L126 142L125 141M621 141L622 142L621 141M124 142L125 143L124 142M622 142L623 143L622 142M123 143L124 144L123 143M623 143L624 144L623 143M122 144L123 145L122 144M624 144L625 145L624 144M121 145L122 146L121 145M625 145L626 146L625 145M626 146L627 147L626 146M627 147L628 148L627 147z"/>
<path style="fill:#fba376; stroke:none;" d="M116 151L117 152L116 151M630 151L631 152L630 151M115 152L116 153L115 152M631 152L632 153L631 152M114 153L115 154L114 153M632 153L633 154L632 153M113 154L114 155L113 154M633 154L634 155L633 154M112 155L113 156L112 155z"/>
<path style="fill:#fdc6ab; stroke:none;" d="M634 155L635 156L634 155M111 156L112 157L111 156M635 156L636 157L635 156z"/>
<path style="fill:#fddac7; stroke:none;" d="M110 157L111 158L110 157M636 157L637 158L636 157M109 158L110 159L109 158M637 158L638 159L637 158z"/>
<path style="fill:#fba376; stroke:none;" d="M107 161L108 162L107 161M639 161L640 162L639 161M106 162L107 163L106 162M640 162L641 163L640 162M105 163L106 164L105 163z"/>
<path style="fill:#fdc6ab; stroke:none;" d="M641 163L642 164L641 163M104 164L105 165L104 164M642 164L643 165L642 164z"/>
<path style="fill:#fddac7; stroke:none;" d="M103 165L104 166L103 165M643 165L644 166L643 165z"/>
<path style="fill:#fba376; stroke:none;" d="M102 167L103 168L102 167M644 167L645 168L644 167M101 168L102 169L101 168M645 168L646 169L645 168z"/>
<path style="fill:#fdc6ab; stroke:none;" d="M100 169L101 170L100 169M646 169L647 170L646 169z"/>
<path style="fill:#fddac7; stroke:none;" d="M99 170L100 171L99 170M647 170L648 171L647 170M648 171L649 172L648 171z"/>
<path style="fill:#fba376; stroke:none;" d="M98 172L99 173L98 172M97 173L98 174L97 173M649 173L650 174L649 173z"/>
<path style="fill:#fdc6ab; stroke:none;" d="M96 174L97 175L96 174z"/>
<path style="fill:#fba376; stroke:none;" d="M650 174L651 175L650 174z"/>
<path style="fill:#fddac7; stroke:none;" d="M95 175L96 176L95 175M651 175L652 176L651 175z"/>
<path style="fill:#fba376; stroke:none;" d="M94 177L95 178L94 177M652 177L653 178L652 177z"/>
<path style="fill:#fdc6ab; stroke:none;" d="M93 178L94 179L93 178z"/>
<path style="fill:#fba376; stroke:none;" d="M653 178L654 179L653 178z"/>
<path style="fill:#fddac7; stroke:none;" d="M92 179L93 180L92 179M654 179L655 180L654 179z"/>
<path style="fill:#fba376; stroke:none;" d="M91 181L92 182L91 181M655 181L656 182L655 181z"/>
<path style="fill:#fdc6ab; stroke:none;" d="M90 182L91 183L90 182z"/>
<path style="fill:#fba376; stroke:none;" d="M656 182L657 183L656 182z"/>
<path style="fill:#fddac7; stroke:none;" d="M89 183L90 184L89 183M657 183L658 184L657 183z"/>
<path style="fill:#fba376; stroke:none;" d="M88 185L89 186L88 185M658 185L659 186L658 185z"/>
<path style="fill:#fdc6ab; stroke:none;" d="M87 186L88 187L87 186M659 186L660 187L659 186z"/>
<path style="fill:#fddac7; stroke:none;" d="M660 187L661 188L660 187z"/>
<path style="fill:#fba376; stroke:none;" d="M86 188L87 189L86 188z"/>
<path style="fill:#fdc6ab; stroke:none;" d="M85 189L86 190L85 189z"/>
<path style="fill:#fba376; stroke:none;" d="M661 189L662 190L661 189z"/>
<path style="fill:#fddac7; stroke:none;" d="M84 190L85 191L84 190M662 190L663 191L662 190z"/>
<path style="fill:#fba376; stroke:none;" d="M83 192L84 193L83 192M663 192L664 193L663 192z"/>
<path style="fill:#fddac7; stroke:none;" d="M82 193L83 194L82 193z"/>
<path style="fill:#fdc6ab; stroke:none;" d="M664 193L665 194L664 193z"/>
<path style="fill:#fddac7; stroke:none;" d="M665 194L666 195L665 194z"/>
<path style="fill:#fba376; stroke:none;" d="M81 195L82 196L81 195z"/>
<path style="fill:#fddac7; stroke:none;" d="M80 196L81 197L80 196z"/>
<path style="fill:#fba376; stroke:none;" d="M666 196L667 197L666 196z"/>
<path style="fill:#fddac7; stroke:none;" d="M667 197L668 198L667 197z"/>
<path style="fill:#fba376; stroke:none;" d="M79 198L80 199L79 198z"/>
<path style="fill:#fddac7; stroke:none;" d="M78 199L79 200L78 199z"/>
<path style="fill:#fdc6ab; stroke:none;" d="M668 199L669 200L668 199z"/>
<path style="fill:#fddac7; stroke:none;" d="M669 200L670 201L669 200z"/>
<path style="fill:#fdc6ab; stroke:none;" d="M77 201L78 202L77 201z"/>
<path style="fill:#fba376; stroke:none;" d="M669 201L670 202L669 201z"/>
<path style="fill:#fddac7; stroke:none;" d="M76 202L77 203L76 202z"/>
<path style="fill:#fdc6ab; stroke:none;" d="M670 202L671 203L670 202z"/>
<path style="fill:#fba376; stroke:none;" d="M76 203L77 204L76 203z"/>
<path style="fill:#fdc6ab; stroke:none;" d="M75 204L76 205L75 204z"/>
<path style="fill:#fba376; stroke:none;" d="M671 204L672 205L671 204z"/>
<path style="fill:#fdc6ab; stroke:none;" d="M672 205L673 206L672 205z"/>
<path style="fill:#fba376; stroke:none;" d="M74 206L75 207L74 206z"/>
<path style="fill:#fddac7; stroke:none;" d="M73 207L74 208L73 207z"/>
<path style="fill:#fba376; stroke:none;" d="M673 207L674 208L673 207z"/>
<path style="fill:#fddac7; stroke:none;" d="M674 208L675 209L674 208z"/>
<path style="fill:#fdc6ab; stroke:none;" d="M72 209L73 210L72 209M675 210L676 211L675 210z"/>
<path style="fill:#fba376; stroke:none;" d="M71 211L72 212L71 211z"/>
<path style="fill:#fddac7; stroke:none;" d="M70 212L71 213L70 212z"/>
<path style="fill:#fba376; stroke:none;" d="M676 212L677 213L676 212z"/>
<path style="fill:#fddac7; stroke:none;" d="M677 213L678 214L677 213z"/>
<path style="fill:#fdc6ab; stroke:none;" d="M69 214L70 215L69 214z"/>
<path style="fill:#fba376; stroke:none;" d="M677 214L678 215L677 214z"/>
<path style="fill:#fdc6ab; stroke:none;" d="M678 215L679 216L678 215z"/>
<path style="fill:#fba376; stroke:none;" d="M68 216L69 217L68 216z"/>
<path style="fill:#fddac7; stroke:none;" d="M67 217L68 218L67 217z"/>
<path style="fill:#fba376; stroke:none;" d="M679 217L680 218L679 217M67 218L68 219L67 218z"/>
<path style="fill:#fddac7; stroke:none;" d="M680 218L681 219L680 218z"/>
<path style="fill:#fdc6ab; stroke:none;" d="M66 219L67 220L66 219z"/>
<path style="fill:#fba376; stroke:none;" d="M680 219L681 220L680 219z"/>
<path style="fill:#fddac7; stroke:none;" d="M681 220L682 221L681 220z"/>
<path style="fill:#fdc6ab; stroke:none;" d="M65 221L66 222L65 221M682 222L683 223L682 222z"/>
<path style="fill:#fba376; stroke:none;" d="M64 223L65 224L64 223z"/>
<path style="fill:#fdc6ab; stroke:none;" d="M683 224L684 225L683 224z"/>
<path style="fill:#fba376; stroke:none;" d="M63 225L64 226L63 225z"/>
<path style="fill:#fddac7; stroke:none;" d="M62 226L63 227L62 226z"/>
<path style="fill:#fba376; stroke:none;" d="M684 226L685 227L684 226M62 227L63 228L62 227z"/>
<path style="fill:#fddac7; stroke:none;" d="M61 228L62 229L61 228z"/>
<path style="fill:#fba376; stroke:none;" d="M685 228L686 229L685 228M61 229L62 230L61 229z"/>
<path style="fill:#fddac7; stroke:none;" d="M686 229L687 230L686 229z"/>
<path style="fill:#fdc6ab; stroke:none;" d="M60 230L61 231L60 230z"/>
<path style="fill:#fba376; stroke:none;" d="M686 230L687 231L686 230z"/>
<path style="fill:#fddac7; stroke:none;" d="M687 231L688 232L687 231z"/>
<path style="fill:#fdc6ab; stroke:none;" d="M59 232L60 233L59 232z"/>
<path style="fill:#fba376; stroke:none;" d="M687 232L688 233L687 232z"/>
<path style="fill:#fddac7; stroke:none;" d="M688 233L689 234L688 233M58 234L59 235L58 234z"/>
<path style="fill:#fba376; stroke:none;" d="M688 234L689 235L688 234z"/>
<path style="fill:#fddac7; stroke:none;" d="M689 235L690 236L689 235M57 236L58 237L57 236z"/>
<path style="fill:#fba376; stroke:none;" d="M689 236L690 237L689 236M57 237L58 238L57 237z"/>
<path style="fill:#fddac7; stroke:none;" d="M690 237L691 238L690 237M56 238L57 239L56 238z"/>
<path style="fill:#fba376; stroke:none;" d="M690 238L691 239L690 238M56 239L57 240L56 239z"/>
<path style="fill:#fddac7; stroke:none;" d="M55 240L56 241L55 240z"/>
<path style="fill:#fba376; stroke:none;" d="M691 240L692 241L691 240M55 241L56 242L55 241z"/>
<path style="fill:#fddac7; stroke:none;" d="M54 242L55 243L54 242z"/>
<path style="fill:#fba376; stroke:none;" d="M692 242L693 243L692 242M54 243L55 244L54 243z"/>
<path style="fill:#fdc6ab; stroke:none;" d="M693 244L694 245L693 244z"/>
<path style="fill:#fba376; stroke:none;" d="M53 245L54 246L53 245z"/>
<path style="fill:#fdc6ab; stroke:none;" d="M694 246L695 247L694 246M52 247L53 248L52 247z"/>
<path style="fill:#fddac7; stroke:none;" d="M695 248L696 249L695 248z"/>
<path style="fill:#fdc6ab; stroke:none;" d="M51 249L52 250L51 249z"/>
<path style="fill:#fba376; stroke:none;" d="M695 249L696 250L695 249z"/>
<path style="fill:#fddac7; stroke:none;" d="M696 250L697 251L696 250M50 251L51 252L50 251z"/>
<path style="fill:#fba376; stroke:none;" d="M696 251L697 252L696 251M50 252L51 253L50 252M697 253L698 254L697 253M49 254L50 255L49 254z"/>
<path style="fill:#fdc6ab; stroke:none;" d="M698 255L699 256L698 255M48 256L49 257L48 256z"/>
<path style="fill:#fba376; stroke:none;" d="M48 257L49 258L48 257z"/>
<path style="fill:#fddac7; stroke:none;" d="M699 257L700 258L699 257M47 258L48 259L47 258z"/>
<path style="fill:#fba376; stroke:none;" d="M699 258L700 259L699 258M47 259L48 260L47 259z"/>
<path style="fill:#fdc6ab; stroke:none;" d="M700 260L701 261L700 260M46 261L47 262L46 261z"/>
<path style="fill:#fba376; stroke:none;" d="M46 262L47 263L46 262z"/>
<path style="fill:#fddac7; stroke:none;" d="M701 262L702 263L701 262M45 263L46 264L45 263z"/>
<path style="fill:#fba376; stroke:none;" d="M701 263L702 264L701 263M45 264L46 265L45 264z"/>
<path style="fill:#fdc6ab; stroke:none;" d="M702 265L703 266L702 265M44 266L45 267L44 266z"/>
<path style="fill:#fba376; stroke:none;" d="M44 267L45 268L44 267z"/>
<path style="fill:#fddac7; stroke:none;" d="M703 267L704 268L703 267M43 268L44 269L43 268z"/>
<path style="fill:#fba376; stroke:none;" d="M703 268L704 269L703 268z"/>
<path style="fill:#fdc6ab; stroke:none;" d="M43 269L44 270L43 269M704 270L705 271L704 270z"/>
<path style="fill:#fddac7; stroke:none;" d="M42 271L43 272L42 271z"/>
<path style="fill:#fba376; stroke:none;" d="M704 271L705 272L704 271M42 272L43 273L42 272z"/>
<path style="fill:#fdc6ab; stroke:none;" d="M705 273L706 274L705 273z"/>
<path style="fill:#fddac7; stroke:none;" d="M41 274L42 275L41 274z"/>
<path style="fill:#fba376; stroke:none;" d="M41 275L42 276L41 275z"/>
<path style="fill:#fddac7; stroke:none;" d="M706 275L707 276L706 275z"/>
<path style="fill:#fba376; stroke:none;" d="M706 276L707 277L706 276z"/>
<path style="fill:#fdc6ab; stroke:none;" d="M40 277L41 278L40 277z"/>
<path style="fill:#fba376; stroke:none;" d="M40 278L41 279L40 278z"/>
<path style="fill:#fddac7; stroke:none;" d="M707 278L708 279L707 278z"/>
<path style="fill:#fba376; stroke:none;" d="M707 279L708 280L707 279z"/>
<path style="fill:#fdc6ab; stroke:none;" d="M39 280L40 281L39 280z"/>
<path style="fill:#fba376; stroke:none;" d="M39 281L40 282L39 281z"/>
<path style="fill:#fddac7; stroke:none;" d="M708 281L709 282L708 281z"/>
<path style="fill:#fba376; stroke:none;" d="M708 282L709 283L708 282z"/>
<path style="fill:#fdc6ab; stroke:none;" d="M38 283L39 284L38 283z"/>
<path style="fill:#fba376; stroke:none;" d="M38 284L39 285L38 284z"/>
<path style="fill:#fddac7; stroke:none;" d="M709 284L710 285L709 284z"/>
<path style="fill:#fba376; stroke:none;" d="M709 285L710 286L709 285z"/>
<path style="fill:#fddac7; stroke:none;" d="M37 286L38 287L37 286z"/>
<path style="fill:#fba376; stroke:none;" d="M37 287L38 288L37 287z"/>
<path style="fill:#fddac7; stroke:none;" d="M710 287L711 288L710 287z"/>
<path style="fill:#fba376; stroke:none;" d="M710 288L711 289L710 288z"/>
<path style="fill:#fddac7; stroke:none;" d="M36 289L37 290L36 289z"/>
<path style="fill:#fba376; stroke:none;" d="M36 290L37 291L36 290z"/>
<path style="fill:#fddac7; stroke:none;" d="M711 290L712 291L711 290z"/>
<path style="fill:#fdc6ab; stroke:none;" d="M711 291L712 292L711 291z"/>
<path style="fill:#fddac7; stroke:none;" d="M35 292L36 293L35 292z"/>
<path style="fill:#fba376; stroke:none;" d="M711 292L712 293L711 292M35.3333 293.667L35.6667 294.333L35.3333 293.667z"/>
<path style="fill:#fdc6ab; stroke:none;" d="M712 294L713 295L712 294z"/>
<path style="fill:#fba376; stroke:none;" d="M712 295L713 296L712 295z"/>
<path style="fill:#fdc6ab; stroke:none;" d="M34 296L35 297L34 296z"/>
<path style="fill:#fba376; stroke:none;" d="M34 297L35 298L34 297z"/>
<path style="fill:#fddac7; stroke:none;" d="M713 297L714 298L713 297z"/>
<path style="fill:#fba376; stroke:none;" d="M713.333 298.667L713.667 299.333L713.333 298.667z"/>
<path style="fill:#fddac7; stroke:none;" d="M33 299L34 300L33 299z"/>
<path style="fill:#fdc6ab; stroke:none;" d="M33 300L34 301L33 300z"/>
<path style="fill:#fba376; stroke:none;" d="M33 301L34 302L33 301z"/>
<path style="fill:#fdc6ab; stroke:none;" d="M714 301L715 302L714 301z"/>
<path style="fill:#fba376; stroke:none;" d="M714 302L715 303L714 302z"/>
<path style="fill:#fddac7; stroke:none;" d="M32 303L33 304L32 303z"/>
<path style="fill:#fba376; stroke:none;" d="M32.3333 304.667L32.6667 305.333L32.3333 304.667z"/>
<path style="fill:#fddac7; stroke:none;" d="M715 304L716 305L715 304z"/>
<path style="fill:#fdc6ab; stroke:none;" d="M715 305L716 306L715 305z"/>
<path style="fill:#fba376; stroke:none;" d="M715 306L716 307L715 306z"/>
<path style="fill:#fddac7; stroke:none;" d="M31 307L32 308L31 307z"/>
<path style="fill:#fba376; stroke:none;" d="M31.3333 308.667L31.6667 309.333L31.3333 308.667z"/>
<path style="fill:#fddac7; stroke:none;" d="M716 308L717 309L716 308z"/>
<path style="fill:#fdc6ab; stroke:none;" d="M716 309L717 310L716 309z"/>
<path style="fill:#fba376; stroke:none;" d="M716 310L717 311L716 310z"/>
<path style="fill:#fddac7; stroke:none;" d="M30 311L31 312L30 311z"/>
<path style="fill:#fdc6ab; stroke:none;" d="M30 312L31 313L30 312z"/>
<path style="fill:#fddac7; stroke:none;" d="M717 312L718 313L717 312z"/>
<path style="fill:#fba376; stroke:none;" d="M30 313L31 314L30 313z"/>
<path style="fill:#fdc6ab; stroke:none;" d="M717 313L718 314L717 313z"/>
<path style="fill:#fba376; stroke:none;" d="M717 314L718 315L717 314z"/>
<path style="fill:#fdc6ab; stroke:none;" d="M29 316L30 317L29 316z"/>
<path style="fill:#fba376; stroke:none;" d="M29 317L30 318L29 317z"/>
<path style="fill:#fddac7; stroke:none;" d="M718 317L719 318L718 317z"/>
<path style="fill:#fba376; stroke:none;" d="M718.333 318.667L718.667 319.333L718.333 318.667z"/>
<path style="fill:#fddac7; stroke:none;" d="M28 320L29 321L28 320z"/>
<path style="fill:#fdc6ab; stroke:none;" d="M28 321L29 322L28 321z"/>
<path style="fill:#fddac7; stroke:none;" d="M719 321L720 322L719 321z"/>
<path style="fill:#fba376; stroke:none;" d="M28 322L29 323L28 322z"/>
<path style="fill:#fdc6ab; stroke:none;" d="M719 322L720 323L719 322z"/>
<path style="fill:#fba376; stroke:none;" d="M719.333 323.667L719.667 324.333L719.333 323.667z"/>
<path style="fill:#fddac7; stroke:none;" d="M27 325L28 326L27 325z"/>
<path style="fill:#fdc6ab; stroke:none;" d="M27 326L28 327L27 326z"/>
<path style="fill:#fba376; stroke:none;" d="M27.3333 327.667L27.6667 328.333L27.3333 327.667z"/>
<path style="fill:#fdc6ab; stroke:none;" d="M720 327L721 328L720 327z"/>
<path style="fill:#fba376; stroke:none;" d="M720.333 328.667L720.667 329.333L720.333 328.667z"/>
<path style="fill:#fddac7; stroke:none;" d="M26 330L27 331L26 330z"/>
<path style="fill:#fdc6ab; stroke:none;" d="M26 331L27 332L26 331z"/>
<path style="fill:#fba376; stroke:none;" d="M26.3333 332.667L26.6667 333.333L26.3333 332.667z"/>
<path style="fill:#fddac7; stroke:none;" d="M721 332L722 333L721 332z"/>
<path style="fill:#fdc6ab; stroke:none;" d="M721 333L722 334L721 333z"/>
<path style="fill:#fba376; stroke:none;" d="M721.333 334.667L721.667 335.333L721.333 334.667z"/>
<path style="fill:#fddac7; stroke:none;" d="M25 336L26 337L25 336z"/>
<path style="fill:#fdc6ab; stroke:none;" d="M25 337L26 338L25 337z"/>
<path style="fill:#fba376; stroke:none;" d="M25.3333 338.667L25.6667 339.333L25.3333 338.667z"/>
<path style="fill:#fddac7; stroke:none;" d="M722 338L723 339L722 338z"/>
<path style="fill:#fdc6ab; stroke:none;" d="M722 339L723 340L722 339z"/>
<path style="fill:#fba376; stroke:none;" d="M722.333 340.667L722.667 341.333L722.333 340.667z"/>
<path style="fill:#fddac7; stroke:none;" d="M24 343L25 344L24 343z"/>
<path style="fill:#fdc6ab; stroke:none;" d="M24 344L25 345L24 344z"/>
<path style="fill:#fddac7; stroke:none;" d="M723.333 344.667L723.667 345.333L723.333 344.667z"/>
<path style="fill:#fba376; stroke:none;" d="M24.3333 345.667L24.6667 346.333L24.3333 345.667z"/>
<path style="fill:#fdc6ab; stroke:none;" d="M723 346L724 347L723 346z"/>
<path style="fill:#fba376; stroke:none;" d="M723.333 347.667L723.667 348.333L723.333 347.667z"/>
<path style="fill:#fddac7; stroke:none;" d="M23.3333 350.667L23.6667 351.333L23.3333 350.667z"/>
<path style="fill:#fdc6ab; stroke:none;" d="M23 352L24 353L23 352z"/>
<path style="fill:#fddac7; stroke:none;" d="M724.333 352.667L724.667 353.333L724.333 352.667z"/>
<path style="fill:#fba376; stroke:none;" d="M23 353L23 356L24 356L23 353z"/>
<path style="fill:#fdc6ab; stroke:none;" d="M724 354L725 355L724 354z"/>
<path style="fill:#fba376; stroke:none;" d="M724 355L724 358L725 358L724 355z"/>
<path style="fill:#fddac7; stroke:none;" d="M22.3333 359.667L22.6667 360.333L22.3333 359.667z"/>
<path style="fill:#fdc6ab; stroke:none;" d="M22.3333 361.667L22.6667 362.333L22.3333 361.667z"/>
<path style="fill:#fddac7; stroke:none;" d="M725 361L725 364L726 364L725 361z"/>
<path style="fill:#fba376; stroke:none;" d="M22 363L22 367L23 367L22 363z"/>
<path style="fill:#fdc6ab; stroke:none;" d="M725.333 364.667L725.667 365.333L725.333 364.667z"/>
<path style="fill:#fba376; stroke:none;" d="M725 366L725 370L726 370L725 366z"/>
<path style="fill:#fddac7; stroke:none;" d="M21 373L21 384L22 384L21 373M726 375L726 378L727 378L726 375z"/>
<path style="fill:#fdc6ab; stroke:none;" d="M726 378L726 382L727 382L726 378z"/>
<path style="fill:#fba376; stroke:none;" d="M726 382L726 389L727 389L726 382z"/>
<path style="fill:#fdc6ab; stroke:none;" d="M21 384L21 906L22 906L22 536L22 430C22 417.009 26.0067 395.932 21 384z"/>
<path style="fill:#fddac7; stroke:none;" d="M22 906L22 907L727 907L707 906L666 906L522 906L22 906z"/>
</svg>
