<?xml version="1.0" standalone="yes"?>
<svg xmlns="http://www.w3.org/2000/svg" width="642" height="89">
<path style="fill:#ffffff; stroke:none;" d="M0 0L0 89L642 89L642 0L0 0z"/>
<path style="fill:#daccf4; stroke:none;" d="M242 31L242 32L249 32L242 31z"/>
<path style="fill:#c6b1ee; stroke:none;" d="M249 31L249 32L257 32L249 31z"/>
<path style="fill:#ae90e7; stroke:none;" d="M257 31L257 32L269 32L257 31z"/>
<path style="fill:#936ddf; stroke:none;" d="M17 60L72 56L72 57L60 57L60 58L65 59L65 60L25 63L25 64C134.964 64 244.007 48 354 48L354 47L270 47L270 46L329 42.0394L407 42.9853L464 45L464 46L380 46L380 47L503 47.0394L551 47.0394L579 49C570.78 43.3765 553.792 44.6291 544 43.9113C516.656 41.9069 489.349 39.7851 462 37.9105C356.101 30.6518 251.895 30.797 146 38.0895C113.047 40.3588 79.8278 42.3118 47 46.0502C36.8559 47.2053 17.1506 47.2811 17 60z"/>
<path style="fill:#ae90e7; stroke:none;" d="M339 31L339 32L342 32L339 31z"/>
<path style="fill:#c6b1ee; stroke:none;" d="M342 31L342 32L347 32L342 31z"/>
<path style="fill:#daccf4; stroke:none;" d="M347 31L348 32L347 31M221 32L221 33L226 33L221 32z"/>
<path style="fill:#c6b1ee; stroke:none;" d="M226 32L226 33L231 33L226 32z"/>
<path style="fill:#ae90e7; stroke:none;" d="M231 32L231 33L237 33L231 32M358 32L358 33L367 33L358 32z"/>
<path style="fill:#c6b1ee; stroke:none;" d="M367 32L367 33L377 33L367 32z"/>
<path style="fill:#daccf4; stroke:none;" d="M377 32L377 33L387 33L377 32M205 33L205 34L209 34L205 33z"/>
<path style="fill:#c6b1ee; stroke:none;" d="M209 33L209 34L213 34L209 33z"/>
<path style="fill:#ae90e7; stroke:none;" d="M213 33L213 34L217 34L213 33M394 33L394 34L400 34L394 33z"/>
<path style="fill:#c6b1ee; stroke:none;" d="M400 33L400 34L404 34L400 33z"/>
<path style="fill:#daccf4; stroke:none;" d="M404 33L404 34L409 34L404 33M189 34L189 35L193 35L189 34z"/>
<path style="fill:#c6b1ee; stroke:none;" d="M193 34L193 35L197 35L193 34z"/>
<path style="fill:#ae90e7; stroke:none;" d="M197 34L197 35L201 35L197 34M414 34L414 35L418 35L414 34z"/>
<path style="fill:#c6b1ee; stroke:none;" d="M418 34L418 35L421 35L418 34z"/>
<path style="fill:#daccf4; stroke:none;" d="M421 34L421 35L426 35L421 34M175 35L175 36L178 36L175 35z"/>
<path style="fill:#c6b1ee; stroke:none;" d="M178 35L178 36L182 36L178 35z"/>
<path style="fill:#ae90e7; stroke:none;" d="M182 35L182 36L185 36L182 35M430 35L430 36L434 36L430 35z"/>
<path style="fill:#c6b1ee; stroke:none;" d="M434 35L434 36L438 36L434 35z"/>
<path style="fill:#daccf4; stroke:none;" d="M438 35L438 36L442 36L438 35M160 36L160 37L164 37L160 36z"/>
<path style="fill:#c6b1ee; stroke:none;" d="M164 36L164 37L167 37L164 36z"/>
<path style="fill:#ae90e7; stroke:none;" d="M167 36L167 37L171 37L167 36M445 36L445 37L448 37L445 36z"/>
<path style="fill:#c6b1ee; stroke:none;" d="M448 36L448 37L452 37L448 36z"/>
<path style="fill:#daccf4; stroke:none;" d="M452 36L452 37L455 37L452 36M146 37L146 38L150 38L146 37z"/>
<path style="fill:#c6b1ee; stroke:none;" d="M150.667 37.3333L151.333 37.6667L150.667 37.3333z"/>
<path style="fill:#ae90e7; stroke:none;" d="M152 37L152 38L156 38L152 37M458 37L458 38L462 38L458 37z"/>
<path style="fill:#c6b1ee; stroke:none;" d="M462 37L462 38L465 38L462 37z"/>
<path style="fill:#daccf4; stroke:none;" d="M465 37L465 38L469 38L465 37M133 38L133 39L137 39L133 38z"/>
<path style="fill:#c6b1ee; stroke:none;" d="M137 38L137 39L140 39L137 38z"/>
<path style="fill:#ae90e7; stroke:none;" d="M140 38L140 39L143 39L140 38M472 38L472 39L475 39L472 38z"/>
<path style="fill:#c6b1ee; stroke:none;" d="M475 38L475 39L478 39L475 38z"/>
<path style="fill:#daccf4; stroke:none;" d="M478 38L478 39L482 39L478 38M120 39L120 40L124 40L120 39z"/>
<path style="fill:#c6b1ee; stroke:none;" d="M124 39L124 40L127 40L124 39z"/>
<path style="fill:#ae90e7; stroke:none;" d="M127 39L127 40L130 40L127 39M486 39L486 40L490 40L486 39z"/>
<path style="fill:#c6b1ee; stroke:none;" d="M490 39L490 40L493 40L490 39z"/>
<path style="fill:#daccf4; stroke:none;" d="M493 39L493 40L497 40L493 39M107 40L107 41L111 41L107 40z"/>
<path style="fill:#c6b1ee; stroke:none;" d="M111 40L111 41L114 41L111 40z"/>
<path style="fill:#ae90e7; stroke:none;" d="M114 40L114 41L117 41L114 40M501 40L501 41L504 41L501 40z"/>
<path style="fill:#c6b1ee; stroke:none;" d="M504 40L504 41L508 41L504 40z"/>
<path style="fill:#daccf4; stroke:none;" d="M508 40L508 41L511 41L508 40M93 41L93 42L97 42L93 41z"/>
<path style="fill:#c6b1ee; stroke:none;" d="M97 41L97 42L100 42L97 41z"/>
<path style="fill:#ae90e7; stroke:none;" d="M100 41L100 42L104 42L100 41M241 42L241 43L247 42L241 42z"/>
<path style="fill:#c6b1ee; stroke:none;" d="M247 41L248 42L247 41z"/>
<path style="fill:#ae90e7; stroke:none;" d="M248 41L249 42L248 41M515 41L515 42L518 42L515 41z"/>
<path style="fill:#c6b1ee; stroke:none;" d="M518 41L518 42L521 42L518 41z"/>
<path style="fill:#daccf4; stroke:none;" d="M521 41L521 42L524 42L521 41M79 42L79 43L83 43L79 42z"/>
<path style="fill:#c6b1ee; stroke:none;" d="M83 42L83 43L86 43L83 42z"/>
<path style="fill:#ae90e7; stroke:none;" d="M86 42L86 43L90 43L86 42M224 42L224 44L228 44L228 42L224 42z"/>
<path style="fill:#c6b1ee; stroke:none;" d="M228 42L228 43L232 43L228 42z"/>
<path style="fill:#ae90e7; stroke:none;" d="M232 42L233 43L232 42z"/>
<path style="fill:#c6b1ee; stroke:none;" d="M233 42L233 43L237 43L233 42z"/>
<path style="fill:#ae90e7; stroke:none;" d="M237 42L238 43L237 42z"/>
<path style="fill:#c6b1ee; stroke:none;" d="M238 42L238 43L241 43L238 42z"/>
<path style="fill:#ae90e7; stroke:none;" d="M324 42L324 43L346 43L324 42z"/>
<path style="fill:#c6b1ee; stroke:none;" d="M346 42L346 43L351 43L346 42z"/>
<path style="fill:#daccf4; stroke:none;" d="M351 42L351 43L366 43L351 42z"/>
<path style="fill:#c6b1ee; stroke:none;" d="M366 42L366 43L389 43L366 42z"/>
<path style="fill:#ae90e7; stroke:none;" d="M389 42L389 43L402 43L389 42M528 42L528 43L531 43L528 42z"/>
<path style="fill:#c6b1ee; stroke:none;" d="M531.667 42.3333L532.333 42.6667L531.667 42.3333z"/>
<path style="fill:#daccf4; stroke:none;" d="M533 42L533 43L537 43L533 42M66 43L66 44L69 44L66 43z"/>
<path style="fill:#c6b1ee; stroke:none;" d="M69 43L69 44L73 44L69 43z"/>
<path style="fill:#ae90e7; stroke:none;" d="M73 43L73 44L76 44L73 43M207 43L207 44L214 45L207 43z"/>
<path style="fill:#c6b1ee; stroke:none;" d="M211 43L211 44L215 44L211 43z"/>
<path style="fill:#daccf4; stroke:none;" d="M215.667 43.3333L216.333 43.6667L215.667 43.3333z"/>
<path style="fill:#c6b1ee; stroke:none;" d="M217.667 43.3333L218.333 43.6667L217.667 43.3333z"/>
<path style="fill:#daccf4; stroke:none;" d="M219.667 43.3333L220.333 43.6667L219.667 43.3333z"/>
<path style="fill:#c6b1ee; stroke:none;" d="M221 43L221 44L224 44L221 43z"/>
<path style="fill:#ae90e7; stroke:none;" d="M313 43L313 44L321 44L313 43z"/>
<path style="fill:#c6b1ee; stroke:none;" d="M321 43L321 44L332 44L321 43z"/>
<path style="fill:#daccf4; stroke:none;" d="M332 43L332 44L345 44L332 43z"/>
<path style="fill:#ffffff; stroke:none;" d="M299 45L299 46L462 46C449.683 40.8316 431.228 44.5399 418 43.9606C378.337 42.2239 338.623 43.2988 299 45z"/>
<path style="fill:#daccf4; stroke:none;" d="M413 43L413 44L423 44L413 43z"/>
<path style="fill:#c6b1ee; stroke:none;" d="M423 43L423 44L432 44L423 43z"/>
<path style="fill:#ae90e7; stroke:none;" d="M432 43L432 44L441 44L432 43M540 43L540 44L543 44L540 43z"/>
<path style="fill:#c6b1ee; stroke:none;" d="M543.667 43.3333L544.333 43.6667L543.667 43.3333z"/>
<path style="fill:#daccf4; stroke:none;" d="M545 43L545 44L548 44L545 43M55 44L55 45L58 45L55 44z"/>
<path style="fill:#c6b1ee; stroke:none;" d="M58.6667 44.3333L59.3333 44.6667L58.6667 44.3333z"/>
<path style="fill:#ae90e7; stroke:none;" d="M60 44L60 45L63 45L60 44M192 44L192 45L199 46L192 44z"/>
<path style="fill:#c6b1ee; stroke:none;" d="M196 44L196 45L199 45L196 44z"/>
<path style="fill:#daccf4; stroke:none;" d="M199 44L199 45L207 45L199 44z"/>
<path style="fill:#c6b1ee; stroke:none;" d="M207 44L207 45L210 45L207 44M296 44L297 45L296 44z"/>
<path style="fill:#ae90e7; stroke:none;" d="M299 44L300 45L299 44z"/>
<path style="fill:#c6b1ee; stroke:none;" d="M300 44L301 45L300 44z"/>
<path style="fill:#daccf4; stroke:none;" d="M301 44L301 45L305 45L301 44M448 44L448 45L455 45L448 44z"/>
<path style="fill:#c6b1ee; stroke:none;" d="M455 44L455 45L459 45L455 44z"/>
<path style="fill:#ae90e7; stroke:none;" d="M459 44L459 45L462 45L459 44M551.667 44.3333L552.333 44.6667L551.667 44.3333z"/>
<path style="fill:#c6b1ee; stroke:none;" d="M553 44L553 45L556 45L553 44z"/>
<path style="fill:#daccf4; stroke:none;" d="M556.667 44.3333L557.333 44.6667L556.667 44.3333M46.6667 45.3333L47.3333 45.6667L46.6667 45.3333z"/>
<path style="fill:#c6b1ee; stroke:none;" d="M48.6667 45.3333L49.3333 45.6667L48.6667 45.3333z"/>
<path style="fill:#ae90e7; stroke:none;" d="M50.6667 45.3333L51.3333 45.6667L50.6667 45.3333M178 45L178 46L186 47L178 45z"/>
<path style="fill:#c6b1ee; stroke:none;" d="M182 45L182 46L185 46L182 45z"/>
<path style="fill:#daccf4; stroke:none;" d="M185 45L185 46L192 46L185 45z"/>
<path style="fill:#c6b1ee; stroke:none;" d="M192 45L192 46L195 46L192 45z"/>
<path style="fill:#ae90e7; stroke:none;" d="M223 45L224 46L223 45M232 45L233 46L232 45M277 45L277 46L284 46L277 45z"/>
<path style="fill:#c6b1ee; stroke:none;" d="M272 46L272 47L299 47L272 46z"/>
<path style="fill:#daccf4; stroke:none;" d="M290 45L290 46L296 46L290 45z"/>
<path style="fill:#ffffff; stroke:none;" d="M296 45L297 46L296 45z"/>
<path style="fill:#daccf4; stroke:none;" d="M297.667 45.3333L298.333 45.6667L297.667 45.3333z"/>
<path style="fill:#c6b1ee; stroke:none;" d="M462 45L463 46L462 45z"/>
<path style="fill:#ae90e7; stroke:none;" d="M463 45L464 46L463 45M561.667 45.3333L562.333 45.6667L561.667 45.3333z"/>
<path style="fill:#c6b1ee; stroke:none;" d="M563.667 45.3333L564.333 45.6667L563.667 45.3333z"/>
<path style="fill:#daccf4; stroke:none;" d="M565 45L565 46L568 46L565 45M40 46L41 47L40 46z"/>
<path style="fill:#c6b1ee; stroke:none;" d="M41.6667 46.3333L42.3333 46.6667L41.6667 46.3333z"/>
<path style="fill:#ae90e7; stroke:none;" d="M43 46L44 47L43 46M165 46L165 47L172 48L172 47L165 46z"/>
<path style="fill:#c6b1ee; stroke:none;" d="M168 46L168 47L171 47L168 46z"/>
<path style="fill:#daccf4; stroke:none;" d="M171 46L171 47L175 47L171 46z"/>
<path style="fill:#ffffff; stroke:none;" d="M175 46L176 47L175 46z"/>
<path style="fill:#daccf4; stroke:none;" d="M176 46L176 47L179 47L176 46z"/>
<path style="fill:#c6b1ee; stroke:none;" d="M179 46L179 47L182 47L179 46z"/>
<path style="fill:#ae90e7; stroke:none;" d="M207.667 46.3333L208.333 46.6667L207.667 46.3333M211 46L212 47L211 46M215.667 46.3333L216.333 46.6667L215.667 46.3333M219.667 46.3333L220.333 46.6667L219.667 46.3333M270.667 46.3333L271.333 46.6667L270.667 46.3333M299 46L299 47L382 48C376.013 43.9096 365.044 46 358 46L299 46M508 46L509 47L508 46M513.667 46.3333L514.333 46.6667L513.667 46.3333M533 46L534 47L533 46M537.667 46.3333L538.333 46.6667L537.667 46.3333M570.667 46.3333L571.333 46.6667L570.667 46.3333z"/>
<path style="fill:#c6b1ee; stroke:none;" d="M572 46L573 47L572 46z"/>
<path style="fill:#daccf4; stroke:none;" d="M573.667 46.3333L574.333 46.6667L573.667 46.3333M36.6667 47.3333L37.3333 47.6667L36.6667 47.3333z"/>
<path style="fill:#c6b1ee; stroke:none;" d="M38 47L39 48L38 47z"/>
<path style="fill:#ae90e7; stroke:none;" d="M150 47L150 48L154 48L150 47z"/>
<path style="fill:#c6b1ee; stroke:none;" d="M152 48L152 49L157 48L152 48z"/>
<path style="fill:#daccf4; stroke:none;" d="M157 47L157 48L165 48L157 47z"/>
<path style="fill:#c6b1ee; stroke:none;" d="M165 47L165 48L168 48L165 47M382 47L382 48L495 48L461 47L382 47z"/>
<path style="fill:#ae90e7; stroke:none;" d="M495 47L495 48L508 48L495 47M541 47L541 48L544 48L541 47z"/>
<path style="fill:#daccf4; stroke:none;" d="M544 47L542 48L542 49L544 47M546 47L547 48L546 47z"/>
<path style="fill:#c6b1ee; stroke:none;" d="M547 47L547 48L553 48L547 47z"/>
<path style="fill:#ae90e7; stroke:none;" d="M553 47L553 48L556 48L553 47M577 47L578 48L577 47z"/>
<path style="fill:#c6b1ee; stroke:none;" d="M578 47L579 48L578 47z"/>
<path style="fill:#daccf4; stroke:none;" d="M579 47L581 50L579 47M29.6667 48.3333L30.3333 48.6667L29.6667 48.3333z"/>
<path style="fill:#c6b1ee; stroke:none;" d="M31 48L32 49L31 48z"/>
<path style="fill:#ae90e7; stroke:none;" d="M32.6667 48.3333L33.3333 48.6667L32.6667 48.3333M136 48L136 49L144 50L136 48z"/>
<path style="fill:#c6b1ee; stroke:none;" d="M140 48L140 49L143 49L140 48z"/>
<path style="fill:#daccf4; stroke:none;" d="M143 48L143 49L147 49L143 48z"/>
<path style="fill:#ffffff; stroke:none;" d="M147 48L148 49L147 48z"/>
<path style="fill:#daccf4; stroke:none;" d="M148 48L148 49L152 49L148 48z"/>
<path style="fill:#ae90e7; stroke:none;" d="M155 48L155 49L158 49L155 48M301 48L301 49L313 49L301 48z"/>
<path style="fill:#c6b1ee; stroke:none;" d="M313 48L313 49L324 49L313 48z"/>
<path style="fill:#daccf4; stroke:none;" d="M324 48L324 49L342 49L324 48M516 48L516 49L524 49L516 48z"/>
<path style="fill:#c6b1ee; stroke:none;" d="M524 48L524 49L534 49L524 48z"/>
<path style="fill:#ae90e7; stroke:none;" d="M534 48L534 49L539 49L534 48z"/>
<path style="fill:#c6b1ee; stroke:none;" d="M539 48L539 49L542 49L539 48z"/>
<path style="fill:#daccf4; stroke:none;" d="M559 48L559 49L562 49L559 48z"/>
<path style="fill:#c6b1ee; stroke:none;" d="M562 48L562 49L565 49L562 48z"/>
<path style="fill:#ae90e7; stroke:none;" d="M565.667 48.3333L566.333 48.6667L565.667 48.3333z"/>
<path style="fill:#daccf4; stroke:none;" d="M24 49L25 50L24 49z"/>
<path style="fill:#c6b1ee; stroke:none;" d="M25 49L26 50L25 49z"/>
<path style="fill:#ae90e7; stroke:none;" d="M26.6667 49.3333L27.3333 49.6667L26.6667 49.3333M122 50L122 51L127 51L127 49L122 50z"/>
<path style="fill:#c6b1ee; stroke:none;" d="M127.667 49.3333L128.333 49.6667L127.667 49.3333z"/>
<path style="fill:#daccf4; stroke:none;" d="M129.667 49.3333L130.333 49.6667L129.667 49.3333z"/>
<path style="fill:#c6b1ee; stroke:none;" d="M131.667 49.3333L132.333 49.6667L131.667 49.3333z"/>
<path style="fill:#daccf4; stroke:none;" d="M133 49L133 50L136 50L133 49z"/>
<path style="fill:#c6b1ee; stroke:none;" d="M136 49L136 50L140 50L136 49z"/>
<path style="fill:#ae90e7; stroke:none;" d="M270 49L270 50L277 50L270 49z"/>
<path style="fill:#c6b1ee; stroke:none;" d="M277 49L277 50L284 50L277 49z"/>
<path style="fill:#daccf4; stroke:none;" d="M284 49L284 50L293 50L284 49M570.667 49.3333L571.333 49.6667L570.667 49.3333z"/>
<path style="fill:#c6b1ee; stroke:none;" d="M572.667 49.3333L573.333 49.6667L572.667 49.3333z"/>
<path style="fill:#ae90e7; stroke:none;" d="M574.667 49.3333L575.333 49.6667L574.667 49.3333M578 49L579 50L578 49z"/>
<path style="fill:#c6b1ee; stroke:none;" d="M579 49L580 50L579 49z"/>
<path style="fill:#daccf4; stroke:none;" d="M21 50L22 51L21 50z"/>
<path style="fill:#ae90e7; stroke:none;" d="M22 50L23 51L22 50M113 50L113 51L116 51L113 50z"/>
<path style="fill:#c6b1ee; stroke:none;" d="M116 50L117 51L116 50z"/>
<path style="fill:#ae90e7; stroke:none;" d="M117 50L117 51L120 51L117 50z"/>
<path style="fill:#c6b1ee; stroke:none;" d="M120.667 50.3333L121.333 50.6667L120.667 50.3333z"/>
<path style="fill:#ae90e7; stroke:none;" d="M253 50L254 51L253 50z"/>
<path style="fill:#c6b1ee; stroke:none;" d="M255 50L255 51L262 52L255 50z"/>
<path style="fill:#daccf4; stroke:none;" d="M260 50L260 51L264 52L260 50z"/>
<path style="fill:#c6b1ee; stroke:none;" d="M19 51L20 52L19 51z"/>
<path style="fill:#ae90e7; stroke:none;" d="M255 51L255 52L259 52L255 51z"/>
<path style="fill:#daccf4; stroke:none;" d="M17 52L18 53L17 52z"/>
<path style="fill:#ae90e7; stroke:none;" d="M239 52L239 53L243 53L239 52z"/>
<path style="fill:#c6b1ee; stroke:none;" d="M243 52L243 53L246 53L243 52z"/>
<path style="fill:#daccf4; stroke:none;" d="M246 52L246 53L251 53L246 52z"/>
<path style="fill:#ae90e7; stroke:none;" d="M225 53L225 54L229 54L225 53z"/>
<path style="fill:#c6b1ee; stroke:none;" d="M229 53L229 54L232 54L229 53z"/>
<path style="fill:#daccf4; stroke:none;" d="M232 53L232 54L235 54L232 53z"/>
<path style="fill:#ae90e7; stroke:none;" d="M212 54L212 55L215 55L212 54z"/>
<path style="fill:#c6b1ee; stroke:none;" d="M215 54L215 55L218 55L215 54z"/>
<path style="fill:#daccf4; stroke:none;" d="M218 54L218 55L222 55L218 54z"/>
<path style="fill:#ae90e7; stroke:none;" d="M72 55L73 56L72 55M76.6667 55.3333L77.3333 55.6667L76.6667 55.3333M80.6667 55.3333L81.3333 55.6667L80.6667 55.3333M198 55L198 56L202 56L198 55z"/>
<path style="fill:#c6b1ee; stroke:none;" d="M202 55L202 56L205 56L202 55z"/>
<path style="fill:#daccf4; stroke:none;" d="M205 55L205 56L209 56L205 55M16 56L16 59L17 59L16 56z"/>
<path style="fill:#ae90e7; stroke:none;" d="M57 57L57 58L61 57L57 57z"/>
<path style="fill:#c6b1ee; stroke:none;" d="M61.6667 56.3333L62.3333 56.6667L61.6667 56.3333z"/>
<path style="fill:#ae90e7; stroke:none;" d="M63 56L64 57L63 56z"/>
<path style="fill:#c6b1ee; stroke:none;" d="M64 56L65 57L64 56z"/>
<path style="fill:#ae90e7; stroke:none;" d="M65 56L65 57L72 57L65 56M186 56L186 57L189 57L186 56z"/>
<path style="fill:#c6b1ee; stroke:none;" d="M189 56L189 57L192 57L189 56z"/>
<path style="fill:#daccf4; stroke:none;" d="M192 56L192 57L195 57L192 56z"/>
<path style="fill:#c6b1ee; stroke:none;" d="M19.6667 57.3333L20.3333 57.6667L19.6667 57.3333z"/>
<path style="fill:#ae90e7; stroke:none;" d="M21 57L22 58L21 57M45 57L45 58L48 58L45 57z"/>
<path style="fill:#c6b1ee; stroke:none;" d="M47 58L47 59L51 58L47 58z"/>
<path style="fill:#daccf4; stroke:none;" d="M51.6667 57.3333L52.3333 57.6667L51.6667 57.3333z"/>
<path style="fill:#c6b1ee; stroke:none;" d="M53 57L53 59L57 59L57 57L53 57z"/>
<path style="fill:#ae90e7; stroke:none;" d="M173 57L173 58L176 58L173 57z"/>
<path style="fill:#c6b1ee; stroke:none;" d="M176 57L176 58L179 58L176 57z"/>
<path style="fill:#daccf4; stroke:none;" d="M179 57L179 58L183 58L179 57z"/>
<path style="fill:#ae90e7; stroke:none;" d="M33 58L33 59L36 59L33 58z"/>
<path style="fill:#c6b1ee; stroke:none;" d="M36 58L36 59L39 59L36 58z"/>
<path style="fill:#daccf4; stroke:none;" d="M39 58L39 59L42 59L39 58z"/>
<path style="fill:#ffffff; stroke:none;" d="M19 60L19 61L56 60C45.1567 55.4483 30.4395 59.9987 19 60z"/>
<path style="fill:#daccf4; stroke:none;" d="M46 58L47 59L46 58z"/>
<path style="fill:#ae90e7; stroke:none;" d="M50 58L50 59L53 59L50 58z"/>
<path style="fill:#daccf4; stroke:none;" d="M56 59L56 60L60 58L56 59z"/>
<path style="fill:#c6b1ee; stroke:none;" d="M60 58L63 60L60 58z"/>
<path style="fill:#ae90e7; stroke:none;" d="M65 58L65 59L68 59L65 58M69 58L70 59L69 58M160 58L160 59L163 59L160 58z"/>
<path style="fill:#c6b1ee; stroke:none;" d="M163 58L163 59L166 59L163 58z"/>
<path style="fill:#daccf4; stroke:none;" d="M166 58L166 59L170 59L166 58z"/>
<path style="fill:#c6b1ee; stroke:none;" d="M19 59L19 60L23 60L19 59z"/>
<path style="fill:#daccf4; stroke:none;" d="M23 59L23 60L30 60L23 59z"/>
<path style="fill:#ae90e7; stroke:none;" d="M63.6667 59.3333L64.3333 59.6667L63.6667 59.3333M145 59L145 60L149 60L145 59z"/>
<path style="fill:#c6b1ee; stroke:none;" d="M149 59L149 60L152 60L149 59z"/>
<path style="fill:#daccf4; stroke:none;" d="M152 59L152 60L156 60L152 59M17 60L18 61L17 60z"/>
<path style="fill:#c6b1ee; stroke:none;" d="M18 60L18 62L20 62L18 60z"/>
<path style="fill:#daccf4; stroke:none;" d="M45 60L45 61L48 61L45 60z"/>
<path style="fill:#c6b1ee; stroke:none;" d="M48.6667 60.3333L49.3333 60.6667L48.6667 60.3333z"/>
<path style="fill:#ae90e7; stroke:none;" d="M50.6667 60.3333L51.3333 60.6667L50.6667 60.3333M126 60L126 61L131 61L126 60z"/>
<path style="fill:#c6b1ee; stroke:none;" d="M131 60L131 61L136 61L131 60z"/>
<path style="fill:#daccf4; stroke:none;" d="M136 60L136 61L140 61L136 60M20 61L21 62L20 61M33 61L33 62L38 62L33 61z"/>
<path style="fill:#c6b1ee; stroke:none;" d="M38.6667 61.3333L39.3333 61.6667L38.6667 61.3333z"/>
<path style="fill:#ae90e7; stroke:none;" d="M40.6667 61.3333L41.3333 61.6667L40.6667 61.3333M75 61L75 62L80 62L75 61z"/>
<path style="fill:#c6b1ee; stroke:none;" d="M80 61L80 62L86 62L80 61z"/>
<path style="fill:#daccf4; stroke:none;" d="M86 61L86 62L90 62L86 61z"/>
<path style="fill:#c6b1ee; stroke:none;" d="M90.6667 61.3333L91.3333 61.6667L90.6667 61.3333z"/>
<path style="fill:#ae90e7; stroke:none;" d="M92 61L93 62L92 61z"/>
<path style="fill:#c6b1ee; stroke:none;" d="M93 61L94 62L93 61z"/>
<path style="fill:#ae90e7; stroke:none;" d="M100 61L100 62L108 62L100 61z"/>
<path style="fill:#c6b1ee; stroke:none;" d="M108 61L108 62L114 62L108 61z"/>
<path style="fill:#daccf4; stroke:none;" d="M114 61L114 62L121 62L114 61M18 62L19 63L18 62z"/>
<path style="fill:#936ddf; stroke:none;" d="M19 62L19 63L22 63L19 62z"/>
<path style="fill:#ae90e7; stroke:none;" d="M22 64L28 63L22 64M57 62L57 63L61 63L57 62z"/>
<path style="fill:#c6b1ee; stroke:none;" d="M61 62L61 63L65 63L61 62z"/>
<path style="fill:#daccf4; stroke:none;" d="M65 62L65 63L70 63L65 62M20 63L21 64L20 63z"/>
<path style="fill:#c6b1ee; stroke:none;" d="M21 63L22 64L21 63z"/>
<path style="fill:#ae90e7; stroke:none;" d="M41 63L41 64L45 64L41 63z"/>
<path style="fill:#c6b1ee; stroke:none;" d="M45 63L45 64L48 64L45 63z"/>
<path style="fill:#daccf4; stroke:none;" d="M48 63L48 64L53 64L48 63z"/>
</svg>
