<svg xmlns="http://www.w3.org/2000/svg" width="642" height="89"><path style="fill:none;stroke:none" d="M0 0v89h642V0H0z"/><path style="fill:#daccf4;stroke:none" d="M242 31v1h7l-7-1z"/><path style="fill:#c6b1ee;stroke:none" d="M249 31v1h8l-8-1z"/><path style="fill:#ae90e7;stroke:none" d="M257 31v1h12l-12-1z"/><path style="fill:#936ddf;stroke:none" d="m17 60 55-4v1H60v1l5 1v1l-40 3v1c109.964 0 219.007-16 329-16v-1h-84v-1l59-3.96 78 .945L464 45v1h-84v1l123 .04h48L579 49c-8.22-5.623-25.208-4.37-35-5.089-27.344-2.004-54.651-4.126-82-6-105.899-7.26-210.105-7.114-316 .178-32.953 2.27-66.172 4.223-99 7.961C36.856 47.205 17.15 47.281 17 60z"/><path style="fill:#ae90e7;stroke:none" d="M339 31v1h3l-3-1z"/><path style="fill:#c6b1ee;stroke:none" d="M342 31v1h5l-5-1z"/><path style="fill:#daccf4;stroke:none" d="m347 31 1 1-1-1m-126 1v1h5l-5-1z"/><path style="fill:#c6b1ee;stroke:none" d="M226 32v1h5l-5-1z"/><path style="fill:#ae90e7;stroke:none" d="M231 32v1h6l-6-1m127 0v1h9l-9-1z"/><path style="fill:#c6b1ee;stroke:none" d="M367 32v1h10l-10-1z"/><path style="fill:#daccf4;stroke:none" d="M377 32v1h10l-10-1m-172 1v1h4l-4-1z"/><path style="fill:#c6b1ee;stroke:none" d="M209 33v1h4l-4-1z"/><path style="fill:#ae90e7;stroke:none" d="M213 33v1h4l-4-1m181 0v1h6l-6-1z"/><path style="fill:#c6b1ee;stroke:none" d="M400 33v1h4l-4-1z"/><path style="fill:#daccf4;stroke:none" d="M404 33v1h5l-5-1m-215 1v1h4l-4-1z"/><path style="fill:#c6b1ee;stroke:none" d="M193 34v1h4l-4-1z"/><path style="fill:#ae90e7;stroke:none" d="M197 34v1h4l-4-1m217 0v1h4l-4-1z"/><path style="fill:#c6b1ee;stroke:none" d="M418 34v1h3l-3-1z"/><path style="fill:#daccf4;stroke:none" d="M421 34v1h5l-5-1m-246 1v1h3l-3-1z"/><path style="fill:#c6b1ee;stroke:none" d="M178 35v1h4l-4-1z"/><path style="fill:#ae90e7;stroke:none" d="M182 35v1h3l-3-1m248 0v1h4l-4-1z"/><path style="fill:#c6b1ee;stroke:none" d="M434 35v1h4l-4-1z"/><path style="fill:#daccf4;stroke:none" d="M438 35v1h4l-4-1m-278 1v1h4l-4-1z"/><path style="fill:#c6b1ee;stroke:none" d="M164 36v1h3l-3-1z"/><path style="fill:#ae90e7;stroke:none" d="M167 36v1h4l-4-1m278 0v1h3l-3-1z"/><path style="fill:#c6b1ee;stroke:none" d="M448 36v1h4l-4-1z"/><path style="fill:#daccf4;stroke:none" d="M452 36v1h3l-3-1m-306 1v1h4l-4-1z"/><path style="fill:#c6b1ee;stroke:none" d="m150.667 37.333.666.334-.666-.334z"/><path style="fill:#ae90e7;stroke:none" d="M152 37v1h4l-4-1m306 0v1h4l-4-1z"/><path style="fill:#c6b1ee;stroke:none" d="M462 37v1h3l-3-1z"/><path style="fill:#daccf4;stroke:none" d="M465 37v1h4l-4-1m-332 1v1h4l-4-1z"/><path style="fill:#c6b1ee;stroke:none" d="M137 38v1h3l-3-1z"/><path style="fill:#ae90e7;stroke:none" d="M140 38v1h3l-3-1m332 0v1h3l-3-1z"/><path style="fill:#c6b1ee;stroke:none" d="M475 38v1h3l-3-1z"/><path style="fill:#daccf4;stroke:none" d="M478 38v1h4l-4-1m-358 1v1h4l-4-1z"/><path style="fill:#c6b1ee;stroke:none" d="M124 39v1h3l-3-1z"/><path style="fill:#ae90e7;stroke:none" d="M127 39v1h3l-3-1m359 0v1h4l-4-1z"/><path style="fill:#c6b1ee;stroke:none" d="M490 39v1h3l-3-1z"/><path style="fill:#daccf4;stroke:none" d="M493 39v1h4l-4-1m-386 1v1h4l-4-1z"/><path style="fill:#c6b1ee;stroke:none" d="M111 40v1h3l-3-1z"/><path style="fill:#ae90e7;stroke:none" d="M114 40v1h3l-3-1m387 0v1h3l-3-1z"/><path style="fill:#c6b1ee;stroke:none" d="M504 40v1h4l-4-1z"/><path style="fill:#daccf4;stroke:none" d="M508 40v1h3l-3-1M93 41v1h4l-4-1z"/><path style="fill:#c6b1ee;stroke:none" d="M97 41v1h3l-3-1z"/><path style="fill:#ae90e7;stroke:none" d="M100 41v1h4l-4-1m141 1v1l6-1h-6z"/><path style="fill:#c6b1ee;stroke:none" d="m247 41 1 1-1-1z"/><path style="fill:#ae90e7;stroke:none" d="m248 41 1 1-1-1m267 0v1h3l-3-1z"/><path style="fill:#c6b1ee;stroke:none" d="M518 41v1h3l-3-1z"/><path style="fill:#daccf4;stroke:none" d="M521 41v1h3l-3-1M79 42v1h4l-4-1z"/><path style="fill:#c6b1ee;stroke:none" d="M83 42v1h3l-3-1z"/><path style="fill:#ae90e7;stroke:none" d="M86 42v1h4l-4-1m138 0v2h4v-2h-4z"/><path style="fill:#c6b1ee;stroke:none" d="M228 42v1h4l-4-1z"/><path style="fill:#ae90e7;stroke:none" d="m232 42 1 1-1-1z"/><path style="fill:#c6b1ee;stroke:none" d="M233 42v1h4l-4-1z"/><path style="fill:#ae90e7;stroke:none" d="m237 42 1 1-1-1z"/><path style="fill:#c6b1ee;stroke:none" d="M238 42v1h3l-3-1z"/><path style="fill:#ae90e7;stroke:none" d="M324 42v1h22l-22-1z"/><path style="fill:#c6b1ee;stroke:none" d="M346 42v1h5l-5-1z"/><path style="fill:#daccf4;stroke:none" d="M351 42v1h15l-15-1z"/><path style="fill:#c6b1ee;stroke:none" d="M366 42v1h23l-23-1z"/><path style="fill:#ae90e7;stroke:none" d="M389 42v1h13l-13-1m139 0v1h3l-3-1z"/><path style="fill:#c6b1ee;stroke:none" d="m531.667 42.333.666.334-.666-.334z"/><path style="fill:#daccf4;stroke:none" d="M533 42v1h4l-4-1M66 43v1h3l-3-1z"/><path style="fill:#c6b1ee;stroke:none" d="M69 43v1h4l-4-1z"/><path style="fill:#ae90e7;stroke:none" d="M73 43v1h3l-3-1m134 0v1l7 1-7-2z"/><path style="fill:#c6b1ee;stroke:none" d="M211 43v1h4l-4-1z"/><path style="fill:#daccf4;stroke:none" d="m215.667 43.333.666.334-.666-.334z"/><path style="fill:#c6b1ee;stroke:none" d="m217.667 43.333.666.334-.666-.334z"/><path style="fill:#daccf4;stroke:none" d="m219.667 43.333.666.334-.666-.334z"/><path style="fill:#c6b1ee;stroke:none" d="M221 43v1h3l-3-1z"/><path style="fill:#ae90e7;stroke:none" d="M313 43v1h8l-8-1z"/><path style="fill:#c6b1ee;stroke:none" d="M321 43v1h11l-11-1z"/><path style="fill:#daccf4;stroke:none" d="M332 43v1h13l-13-1z"/><path style="fill:#fff;stroke:none" d="M299 45v1h163c-12.317-5.168-30.772-1.46-44-2.04-39.663-1.736-79.377-.661-119 1.04z"/><path style="fill:#daccf4;stroke:none" d="M413 43v1h10l-10-1z"/><path style="fill:#c6b1ee;stroke:none" d="M423 43v1h9l-9-1z"/><path style="fill:#ae90e7;stroke:none" d="M432 43v1h9l-9-1m108 0v1h3l-3-1z"/><path style="fill:#c6b1ee;stroke:none" d="m543.667 43.333.666.334-.666-.334z"/><path style="fill:#daccf4;stroke:none" d="M545 43v1h3l-3-1M55 44v1h3l-3-1z"/><path style="fill:#c6b1ee;stroke:none" d="m58.667 44.333.666.334-.666-.334z"/><path style="fill:#ae90e7;stroke:none" d="M60 44v1h3l-3-1m132 0v1l7 1-7-2z"/><path style="fill:#c6b1ee;stroke:none" d="M196 44v1h3l-3-1z"/><path style="fill:#daccf4;stroke:none" d="M199 44v1h8l-8-1z"/><path style="fill:#c6b1ee;stroke:none" d="M207 44v1h3l-3-1m89 0 1 1-1-1z"/><path style="fill:#ae90e7;stroke:none" d="m299 44 1 1-1-1z"/><path style="fill:#c6b1ee;stroke:none" d="m300 44 1 1-1-1z"/><path style="fill:#daccf4;stroke:none" d="M301 44v1h4l-4-1m147 0v1h7l-7-1z"/><path style="fill:#c6b1ee;stroke:none" d="M455 44v1h4l-4-1z"/><path style="fill:#ae90e7;stroke:none" d="M459 44v1h3l-3-1m92.667.333.666.334-.666-.334z"/><path style="fill:#c6b1ee;stroke:none" d="M553 44v1h3l-3-1z"/><path style="fill:#daccf4;stroke:none" d="m556.667 44.333.666.334-.666-.334m-510 1 .666.334-.666-.334z"/><path style="fill:#c6b1ee;stroke:none" d="m48.667 45.333.666.334-.666-.334z"/><path style="fill:#ae90e7;stroke:none" d="m50.667 45.333.666.334-.666-.334M178 45v1l8 1-8-2z"/><path style="fill:#c6b1ee;stroke:none" d="M182 45v1h3l-3-1z"/><path style="fill:#daccf4;stroke:none" d="M185 45v1h7l-7-1z"/><path style="fill:#c6b1ee;stroke:none" d="M192 45v1h3l-3-1z"/><path style="fill:#ae90e7;stroke:none" d="m223 45 1 1-1-1m9 0 1 1-1-1m45 0v1h7l-7-1z"/><path style="fill:#c6b1ee;stroke:none" d="M272 46v1h27l-27-1z"/><path style="fill:#daccf4;stroke:none" d="M290 45v1h6l-6-1z"/><path style="fill:#fff;stroke:none" d="m296 45 1 1-1-1z"/><path style="fill:#daccf4;stroke:none" d="m297.667 45.333.666.334-.666-.334z"/><path style="fill:#c6b1ee;stroke:none" d="m462 45 1 1-1-1z"/><path style="fill:#ae90e7;stroke:none" d="m463 45 1 1-1-1m98.667.333.666.334-.666-.334z"/><path style="fill:#c6b1ee;stroke:none" d="m563.667 45.333.666.334-.666-.334z"/><path style="fill:#daccf4;stroke:none" d="M565 45v1h3l-3-1M40 46l1 1-1-1z"/><path style="fill:#c6b1ee;stroke:none" d="m41.667 46.333.666.334-.666-.334z"/><path style="fill:#ae90e7;stroke:none" d="m43 46 1 1-1-1m122 0v1l7 1v-1l-7-1z"/><path style="fill:#c6b1ee;stroke:none" d="M168 46v1h3l-3-1z"/><path style="fill:#daccf4;stroke:none" d="M171 46v1h4l-4-1z"/><path style="fill:#fff;stroke:none" d="m175 46 1 1-1-1z"/><path style="fill:#daccf4;stroke:none" d="M176 46v1h3l-3-1z"/><path style="fill:#c6b1ee;stroke:none" d="M179 46v1h3l-3-1z"/><path style="fill:#ae90e7;stroke:none" d="m207.667 46.333.666.334-.666-.334M211 46l1 1-1-1m4.667.333.666.334-.666-.334m4 0 .666.334-.666-.334m51 0 .666.334-.666-.334M299 46v1l83 1c-5.987-4.09-16.956-2-24-2h-59m209 0 1 1-1-1m5.667.333.666.334-.666-.334M533 46l1 1-1-1m4.667.333.666.334-.666-.334m33 0 .666.334-.666-.334z"/><path style="fill:#c6b1ee;stroke:none" d="m572 46 1 1-1-1z"/><path style="fill:#daccf4;stroke:none" d="m573.667 46.333.666.334-.666-.334m-537 1 .666.334-.666-.334z"/><path style="fill:#c6b1ee;stroke:none" d="m38 47 1 1-1-1z"/><path style="fill:#ae90e7;stroke:none" d="M150 47v1h4l-4-1z"/><path style="fill:#c6b1ee;stroke:none" d="M152 48v1l5-1h-5z"/><path style="fill:#daccf4;stroke:none" d="M157 47v1h8l-8-1z"/><path style="fill:#c6b1ee;stroke:none" d="M165 47v1h3l-3-1m217 0v1h113l-34-1h-79z"/><path style="fill:#ae90e7;stroke:none" d="M495 47v1h13l-13-1m46 0v1h3l-3-1z"/><path style="fill:#daccf4;stroke:none" d="m544 47-2 1v1l2-2m2 0 1 1-1-1z"/><path style="fill:#c6b1ee;stroke:none" d="M547 47v1h6l-6-1z"/><path style="fill:#ae90e7;stroke:none" d="M553 47v1h3l-3-1m24 0 1 1-1-1z"/><path style="fill:#c6b1ee;stroke:none" d="m578 47 1 1-1-1z"/><path style="fill:#daccf4;stroke:none" d="m579 47 2 3-2-3M29.667 48.333l.666.334-.666-.334z"/><path style="fill:#c6b1ee;stroke:none" d="m31 48 1 1-1-1z"/><path style="fill:#ae90e7;stroke:none" d="m32.667 48.333.666.334-.666-.334M136 48v1l8 1-8-2z"/><path style="fill:#c6b1ee;stroke:none" d="M140 48v1h3l-3-1z"/><path style="fill:#daccf4;stroke:none" d="M143 48v1h4l-4-1z"/><path style="fill:#fff;stroke:none" d="m147 48 1 1-1-1z"/><path style="fill:#daccf4;stroke:none" d="M148 48v1h4l-4-1z"/><path style="fill:#ae90e7;stroke:none" d="M155 48v1h3l-3-1m146 0v1h12l-12-1z"/><path style="fill:#c6b1ee;stroke:none" d="M313 48v1h11l-11-1z"/><path style="fill:#daccf4;stroke:none" d="M324 48v1h18l-18-1m192 0v1h8l-8-1z"/><path style="fill:#c6b1ee;stroke:none" d="M524 48v1h10l-10-1z"/><path style="fill:#ae90e7;stroke:none" d="M534 48v1h5l-5-1z"/><path style="fill:#c6b1ee;stroke:none" d="M539 48v1h3l-3-1z"/><path style="fill:#daccf4;stroke:none" d="M559 48v1h3l-3-1z"/><path style="fill:#c6b1ee;stroke:none" d="M562 48v1h3l-3-1z"/><path style="fill:#ae90e7;stroke:none" d="m565.667 48.333.666.334-.666-.334z"/><path style="fill:#daccf4;stroke:none" d="m24 49 1 1-1-1z"/><path style="fill:#c6b1ee;stroke:none" d="m25 49 1 1-1-1z"/><path style="fill:#ae90e7;stroke:none" d="m26.667 49.333.666.334-.666-.334M122 50v1h5v-2l-5 1z"/><path style="fill:#c6b1ee;stroke:none" d="m127.667 49.333.666.334-.666-.334z"/><path style="fill:#daccf4;stroke:none" d="m129.667 49.333.666.334-.666-.334z"/><path style="fill:#c6b1ee;stroke:none" d="m131.667 49.333.666.334-.666-.334z"/><path style="fill:#daccf4;stroke:none" d="M133 49v1h3l-3-1z"/><path style="fill:#c6b1ee;stroke:none" d="M136 49v1h4l-4-1z"/><path style="fill:#ae90e7;stroke:none" d="M270 49v1h7l-7-1z"/><path style="fill:#c6b1ee;stroke:none" d="M277 49v1h7l-7-1z"/><path style="fill:#daccf4;stroke:none" d="M284 49v1h9l-9-1m286.667.333.666.334-.666-.334z"/><path style="fill:#c6b1ee;stroke:none" d="m572.667 49.333.666.334-.666-.334z"/><path style="fill:#ae90e7;stroke:none" d="m574.667 49.333.666.334-.666-.334M578 49l1 1-1-1z"/><path style="fill:#c6b1ee;stroke:none" d="m579 49 1 1-1-1z"/><path style="fill:#daccf4;stroke:none" d="m21 50 1 1-1-1z"/><path style="fill:#ae90e7;stroke:none" d="m22 50 1 1-1-1m91 0v1h3l-3-1z"/><path style="fill:#c6b1ee;stroke:none" d="m116 50 1 1-1-1z"/><path style="fill:#ae90e7;stroke:none" d="M117 50v1h3l-3-1z"/><path style="fill:#c6b1ee;stroke:none" d="m120.667 50.333.666.334-.666-.334z"/><path style="fill:#ae90e7;stroke:none" d="m253 50 1 1-1-1z"/><path style="fill:#c6b1ee;stroke:none" d="M255 50v1l7 1-7-2z"/><path style="fill:#daccf4;stroke:none" d="M260 50v1l4 1-4-2z"/><path style="fill:#c6b1ee;stroke:none" d="m19 51 1 1-1-1z"/><path style="fill:#ae90e7;stroke:none" d="M255 51v1h4l-4-1z"/><path style="fill:#daccf4;stroke:none" d="m17 52 1 1-1-1z"/><path style="fill:#ae90e7;stroke:none" d="M239 52v1h4l-4-1z"/><path style="fill:#c6b1ee;stroke:none" d="M243 52v1h3l-3-1z"/><path style="fill:#daccf4;stroke:none" d="M246 52v1h5l-5-1z"/><path style="fill:#ae90e7;stroke:none" d="M225 53v1h4l-4-1z"/><path style="fill:#c6b1ee;stroke:none" d="M229 53v1h3l-3-1z"/><path style="fill:#daccf4;stroke:none" d="M232 53v1h3l-3-1z"/><path style="fill:#ae90e7;stroke:none" d="M212 54v1h3l-3-1z"/><path style="fill:#c6b1ee;stroke:none" d="M215 54v1h3l-3-1z"/><path style="fill:#daccf4;stroke:none" d="M218 54v1h4l-4-1z"/><path style="fill:#ae90e7;stroke:none" d="m72 55 1 1-1-1m4.667.333.666.334-.666-.334m4 0 .666.334-.666-.334M198 55v1h4l-4-1z"/><path style="fill:#c6b1ee;stroke:none" d="M202 55v1h3l-3-1z"/><path style="fill:#daccf4;stroke:none" d="M205 55v1h4l-4-1M16 56v3h1l-1-3z"/><path style="fill:#ae90e7;stroke:none" d="M57 57v1l4-1h-4z"/><path style="fill:#c6b1ee;stroke:none" d="m61.667 56.333.666.334-.666-.334z"/><path style="fill:#ae90e7;stroke:none" d="m63 56 1 1-1-1z"/><path style="fill:#c6b1ee;stroke:none" d="m64 56 1 1-1-1z"/><path style="fill:#ae90e7;stroke:none" d="M65 56v1h7l-7-1m121 0v1h3l-3-1z"/><path style="fill:#c6b1ee;stroke:none" d="M189 56v1h3l-3-1z"/><path style="fill:#daccf4;stroke:none" d="M192 56v1h3l-3-1z"/><path style="fill:#c6b1ee;stroke:none" d="m19.667 57.333.666.334-.666-.334z"/><path style="fill:#ae90e7;stroke:none" d="m21 57 1 1-1-1m24 0v1h3l-3-1z"/><path style="fill:#c6b1ee;stroke:none" d="M47 58v1l4-1h-4z"/><path style="fill:#daccf4;stroke:none" d="m51.667 57.333.666.334-.666-.334z"/><path style="fill:#c6b1ee;stroke:none" d="M53 57v2h4v-2h-4z"/><path style="fill:#ae90e7;stroke:none" d="M173 57v1h3l-3-1z"/><path style="fill:#c6b1ee;stroke:none" d="M176 57v1h3l-3-1z"/><path style="fill:#daccf4;stroke:none" d="M179 57v1h4l-4-1z"/><path style="fill:#ae90e7;stroke:none" d="M33 58v1h3l-3-1z"/><path style="fill:#c6b1ee;stroke:none" d="M36 58v1h3l-3-1z"/><path style="fill:#daccf4;stroke:none" d="M39 58v1h3l-3-1z"/><path style="fill:#fff;stroke:none" d="M19 60v1l37-1c-10.843-4.552-25.56-.001-37 0z"/><path style="fill:#daccf4;stroke:none" d="m46 58 1 1-1-1z"/><path style="fill:#ae90e7;stroke:none" d="M50 58v1h3l-3-1z"/><path style="fill:#daccf4;stroke:none" d="M56 59v1l4-2-4 1z"/><path style="fill:#c6b1ee;stroke:none" d="m60 58 3 2-3-2z"/><path style="fill:#ae90e7;stroke:none" d="M65 58v1h3l-3-1m4 0 1 1-1-1m91 0v1h3l-3-1z"/><path style="fill:#c6b1ee;stroke:none" d="M163 58v1h3l-3-1z"/><path style="fill:#daccf4;stroke:none" d="M166 58v1h4l-4-1z"/><path style="fill:#c6b1ee;stroke:none" d="M19 59v1h4l-4-1z"/><path style="fill:#daccf4;stroke:none" d="M23 59v1h7l-7-1z"/><path style="fill:#ae90e7;stroke:none" d="m63.667 59.333.666.334-.666-.334M145 59v1h4l-4-1z"/><path style="fill:#c6b1ee;stroke:none" d="M149 59v1h3l-3-1z"/><path style="fill:#daccf4;stroke:none" d="M152 59v1h4l-4-1M17 60l1 1-1-1z"/><path style="fill:#c6b1ee;stroke:none" d="M18 60v2h2l-2-2z"/><path style="fill:#daccf4;stroke:none" d="M45 60v1h3l-3-1z"/><path style="fill:#c6b1ee;stroke:none" d="m48.667 60.333.666.334-.666-.334z"/><path style="fill:#ae90e7;stroke:none" d="m50.667 60.333.666.334-.666-.334M126 60v1h5l-5-1z"/><path style="fill:#c6b1ee;stroke:none" d="M131 60v1h5l-5-1z"/><path style="fill:#daccf4;stroke:none" d="M136 60v1h4l-4-1M20 61l1 1-1-1m13 0v1h5l-5-1z"/><path style="fill:#c6b1ee;stroke:none" d="m38.667 61.333.666.334-.666-.334z"/><path style="fill:#ae90e7;stroke:none" d="m40.667 61.333.666.334-.666-.334M75 61v1h5l-5-1z"/><path style="fill:#c6b1ee;stroke:none" d="M80 61v1h6l-6-1z"/><path style="fill:#daccf4;stroke:none" d="M86 61v1h4l-4-1z"/><path style="fill:#c6b1ee;stroke:none" d="m90.667 61.333.666.334-.666-.334z"/><path style="fill:#ae90e7;stroke:none" d="m92 61 1 1-1-1z"/><path style="fill:#c6b1ee;stroke:none" d="m93 61 1 1-1-1z"/><path style="fill:#ae90e7;stroke:none" d="M100 61v1h8l-8-1z"/><path style="fill:#c6b1ee;stroke:none" d="M108 61v1h6l-6-1z"/><path style="fill:#daccf4;stroke:none" d="M114 61v1h7l-7-1m-96 1 1 1-1-1z"/><path style="fill:#936ddf;stroke:none" d="M19 62v1h3l-3-1z"/><path style="fill:#ae90e7;stroke:none" d="m22 64 6-1-6 1m35-2v1h4l-4-1z"/><path style="fill:#c6b1ee;stroke:none" d="M61 62v1h4l-4-1z"/><path style="fill:#daccf4;stroke:none" d="M65 62v1h5l-5-1m-45 1 1 1-1-1z"/><path style="fill:#c6b1ee;stroke:none" d="m21 63 1 1-1-1z"/><path style="fill:#ae90e7;stroke:none" d="M41 63v1h4l-4-1z"/><path style="fill:#c6b1ee;stroke:none" d="M45 63v1h3l-3-1z"/><path style="fill:#daccf4;stroke:none" d="M48 63v1h5l-5-1z"/></svg>